<svg id="Layer_1" data-name="Layer 1" xmlns="http://www.w3.org/2000/svg" viewBox="0 0 100 50"><defs><style>.cls-1{fill:#d1d3d4;}.cls-2{fill:#098e45;}.cls-3{fill:#212d62;}</style></defs><title>5</title><path class="cls-1" d="M50,0A50,50,0,0,0,35.73,2.07l4.36,13.42a35.94,35.94,0,0,1,19.83,0L64.27,2.07A50,50,0,0,0,50,0Z"/><path class="cls-1" d="M21.69,27.91a36,36,0,0,1,16-11.67L33.38,2.83A50.12,50.12,0,0,0,10.29,19.62Z"/><path class="cls-2" d="M8.84,21.62A49.75,49.75,0,0,0,0,50H14.09a35.73,35.73,0,0,1,6.15-20.09Z"/><path class="cls-1" d="M79.76,29.9A35.74,35.74,0,0,1,85.91,50H100a49.76,49.76,0,0,0-8.83-28.38Z"/><path class="cls-1" d="M66.62,2.84,62.27,16.24a36,36,0,0,1,16,11.67l11.41-8.29A50.12,50.12,0,0,0,66.62,2.84Z"/><path class="cls-3" d="M43.53,42.94a6.49,6.49,0,1,0,7-5.9A6.49,6.49,0,0,0,43.53,42.94Zm10.64.93a4.19,4.19,0,1,1-3.81-4.54A4.19,4.19,0,0,1,54.18,43.87Z"/><polygon class="cls-3" points="45.62 39.81 26.92 41.15 45.1 45.71 45.62 39.81"/></svg>