<svg width="30" height="19" viewBox="0 0 30 19" fill="none" xmlns="http://www.w3.org/2000/svg">
<path d="M3.72103 14.965C3.72103 16.1161 3.72103 17.4975 3.72103 18.6486C2.55821 18.6486 1.16282 18.6486 0 18.6486C0 18.4184 0 18.4184 0 18.4184C0 12.6627 0 6.90691 0 1.15115C0 0.46046 0.465129 0 0.930257 0C1.39539 0 2.09308 0 2.55821 0C3.2559 0 3.48847 0.46046 3.48847 0.920921C3.48847 4.14414 3.48847 7.5976 3.48847 10.8208V11.0511H3.72103C12.0933 11.0511 20.2331 11.0511 28.6054 11.0511C28.838 11.0511 29.3031 11.0511 29.5357 11.2813C29.5357 11.5115 29.7682 11.7417 29.7682 11.7417C29.7682 13.8138 29.7682 16.1161 29.7682 18.1882C28.6054 18.1882 27.21 18.1882 26.0472 18.1882C26.0472 17.037 26.0472 15.6557 26.0472 14.5045C18.8377 14.965 11.1631 14.965 3.72103 14.965Z" fill="#38A169"/>
<path d="M13.0228 10.1303C13.0228 8.28849 13.0228 6.44664 13.0228 4.6048C13.0228 3.91411 13.4879 3.68388 13.9531 3.68388C17.4415 3.68388 20.6974 3.68388 24.1859 3.68388C27.2092 3.68388 29.3023 5.98618 29.7674 7.82803C30 8.51872 30 9.43964 30 10.1303C24.4185 10.1303 18.8369 10.1303 13.0228 10.1303Z" fill="#38A169"/>
<path d="M8.37232 10.13C6.27924 10.13 4.65129 8.51842 4.65129 6.44635C4.65129 4.37428 6.27924 2.76266 8.37232 2.76266C10.4654 2.76266 12.0933 4.37428 12.0933 6.44635C12.0933 8.51842 10.4654 10.13 8.37232 10.13Z" fill="#38A169"/>
</svg>
