<svg width="27" height="27" viewBox="0 0 27 27" fill="none" xmlns="http://www.w3.org/2000/svg">
<path d="M17 6L11 2.5359L11 9.4641L17 6Z" stroke="#222C62" stroke-width="2"/>
<path d="M11 3L11 13" stroke="#222C62" stroke-width="2"/>
<path d="M0.164963 25.7153L10.4823 12.3212C10.6381 12.1189 10.8824 12 11.142 12C11.4016 12 11.646 12.1189 11.8017 12.3212L16.0793 17.8745L17.7777 15.6696C17.9334 15.4673 18.1778 15.3484 18.4374 15.3484C18.697 15.3484 18.9413 15.4673 19.0971 15.6696L26.8351 25.7153C27.0225 25.9586 27.0526 26.2842 26.913 26.5562C26.7733 26.8282 26.4878 27 26.1754 27H0.824675C0.512302 27 0.226755 26.8282 0.0871162 26.5562C-0.0526314 26.2841 -0.0225048 25.9586 0.164963 25.7153ZM24.5261 25.3942L18.4374 17.4895L16.7391 19.6945C16.5834 19.8967 16.339 20.0156 16.0794 20.0156C15.8198 20.0156 15.5755 19.8967 15.4197 19.6945L11.1421 14.1411L2.47395 25.3942H24.5261Z" fill="#222C62"/>
</svg>
