<svg width="75" height="45" viewBox="0 0 75 45" fill="none" xmlns="http://www.w3.org/2000/svg">
<path d="M71.3665 37.0965V29.967L68.5933 26.9465L68.4704 27.0803L73.4611 18.9265L71.5214 18.6646C64.1636 17.6578 60.6102 20.917 59.1034 23.0529C57.9973 21.9122 56.1004 20.4747 53.4127 20.0847C54.9622 16.4822 56.5653 14.2473 56.5973 14.2124L58.1629 12.0706H55.6515C48.3845 12.0706 43.7358 14.2182 41.6625 15.4462C39.8511 11.5992 33.7169 1.32113 19.4393 0.209519L16.7355 0L18.4027 2.33381C18.4508 2.39783 21.1011 6.17499 23.3774 11.9659C21.0103 10.7902 17.1844 9.42835 12.0975 9.42835H9.58072L11.1517 11.5701C11.1731 11.5992 11.9639 12.705 12.9684 14.6838C10.8899 14.0145 7.82274 13.3801 3.62817 13.3801L0.587774 13.3859L2.7946 15.6615C2.83735 15.7081 7.05329 20.0964 8.27159 25.6137L3.62817 26.8475V37.0965H0V45H75V37.0965H71.3665ZM68.9513 31.0554V37.0965H65.3231V32.2252L67.204 29.1522L68.9513 31.0554ZM69.2131 21.1148L64.0247 29.5945L60.7224 25.0957C61.4919 23.8095 63.8163 21.0392 69.2131 21.1148ZM57.8904 25.4682L59.6591 27.8777H55.5286C55.2722 26.2073 54.6256 24.3217 54.0539 22.8899C56.0363 23.4603 57.3026 24.7465 57.8904 25.4682ZM61.5934 30.5083L62.9025 32.2892V37.0965H58.0668V34.46H55.6462V37.0965H50.8051V34.46H48.3845V37.0965H42.3358V32.7722L48.5822 30.5083H61.5934ZM51.0295 27.8777C51.2646 26.574 51.5745 25.3401 51.9218 24.1762C52.3814 25.3518 52.8302 26.702 53.06 27.8777H51.0295ZM42.3358 18.0477C43.5808 17.2329 47.2197 15.2192 53.2844 14.7827C52.5524 16.0457 51.644 17.8207 50.789 19.9683H50.0142L50.4471 20.8646C49.6883 22.9132 49.015 25.2819 48.5876 27.8777H48.1922L47.8448 28.0057L42.3411 20.8122L42.3358 18.0477ZM45.3762 28.8961L41.1282 30.4384L36.8802 28.8961L41.1282 23.3439L45.3762 28.8961ZM21.8599 3.16024C34.9031 5.39511 39.3114 15.9584 39.9152 17.5879V20.8122L34.4115 28.0057L30.4307 26.5623H28.9933C28.646 16.1097 24.2751 7.26332 21.8599 3.16024ZM24.6812 15.7547L24.6972 15.7314C25.6697 18.9207 26.3964 22.5116 26.5567 26.3063L20.3744 25.183L19.0813 25.8872C18.4721 22.0519 17.4462 18.7869 16.3936 16.2377V16.2319L16.3882 16.2261C15.7043 14.5674 15.015 13.1939 14.4432 12.1696C20.9194 12.7807 24.6384 15.7197 24.6812 15.7547ZM6.42277 16.1213C10.8257 16.4647 13.4226 17.553 14.4913 18.1059C15.3623 20.3466 16.1905 23.0936 16.7035 26.2772L11.0876 25.2587L10.6708 25.2528C9.89064 21.4582 7.9403 18.1932 6.42277 16.1213ZM6.04873 28.902L9.82652 27.8718H10.7883L18.3332 29.2395L20.7538 27.9242L27.6254 29.1697L30.046 29.1871L39.9206 32.7722V37.0965H21.7744V31.8236H19.3538V37.0965H10.8845V31.8236H8.46395V37.0965H6.04339V28.902H6.04873ZM72.5794 42.3694H2.42056V39.7329H72.5794V42.3694Z" fill="#38A169"/>
<path d="M30.1688 31.9109H27.7483V34.5473H30.1688V31.9109Z" fill="#38A169"/>
<path d="M35.0794 31.9109H32.6589V34.5473H35.0794V31.9109Z" fill="#38A169"/>
<path d="M14.518 31.9109H12.0975V34.5473H14.518V31.9109Z" fill="#38A169"/>
</svg>
