<svg version="1.1" id="Capa_1" xmlns="http://www.w3.org/2000/svg" xmlns:xlink="http://www.w3.org/1999/xlink" x="0px" y="0px"
	 viewBox="0 0 296.94 296.94" style="enable-background:new 0 0 296.94 296.94;" xml:space="preserve">
<style type="text/css">
	.st0{fill:#FF683F;}
</style>
<path class="st0" d="M208.92,188.48h-20.79v-20.21c5-5.88,8.86-12.37,12.1-18.87c1.27-0.23,2.7-0.64,3.96-1.24
	c5.79-2.77,11.12-9.51,14.13-18.04c3.47-9.83,3.09-20.16-0.75-25.88c0.51-10.61,0.2-40.2-18.4-60.94
	c-3.09-3.44-6.51-6.42-10.25-8.97C185.69,14.67,169.5,0,149.43,0c-19.75,0-37.76,14.32-41.31,33.58
	c-7.07,4.05-13.04,9.31-17.74,15.73c-10.27,14.05-13.49,33.92-9.41,54.93c-5.3,5.28-6.44,14.56-2.44,25.88
	c2.01,5.69,5.1,10.74,8.7,14.22c2.97,2.87,6.24,4.6,9.49,5.1c3.39,6.81,7.43,13.6,12.43,19.69v19.35H88.01
	c-29.85,0-52.59,51.35-52.59,76.93c0,2.86,1.65,5.58,4.24,6.8c40.12,18.83,77.95,24.73,109.43,24.73c16.57,0,31.38-1.59,43.84-3.78
	c39.23-6.9,63.79-20.52,64.82-21.09c2.32-1.31,3.76-4.01,3.76-6.67C261.52,239.83,238.78,188.48,208.92,188.48z M97.42,116.43
	c3.23-3.78,12.41-15.09,18.05-27.59c11.75,12.23,36.94,26.69,90.46,26.76c0.21,2.04,0.05,5.4-1.43,9.61
	c-1.98,5.62-4.85,8.59-6.15,9.44c-1.52-0.5-3.18-0.49-4.72,0.04c-1.93,0.67-3.49,2.1-4.32,3.97c-7.94,17.86-23.51,38.72-40.84,38.72
	c-9.13,0-17.57-5.78-24.82-13.87c3.48,0.66,6.66,0.88,9.3,0.88c0.33,0,0.64,0.07,0.95,0.06c1.86,2.4,4.77,4.03,8.05,4.03h13.04
	c5.63,0,10.15-4.71,10.15-10.33v-3.21c0-5.63-4.52-10.46-10.15-10.46h-13.04c-3.72,0-6.96,2.13-8.74,5.11
	c-2.99,0.05-7.27-0.21-11.85-1.93C110.11,143.46,101.95,132.7,97.42,116.43z M149.43,14.74c8.81,0,15.62,4.41,20.42,11.23
	c-6.07-1.53-13.71-2.32-20.71-2.32v0c-8,0.06-15.6,0.96-22.57,2.65C131.34,19.3,140.51,14.74,149.43,14.74z M102.14,58.01
	c9.25-12.66,25-19.44,47-19.6v0c16,0,30.14,4.94,38.9,14.68c13.15,14.62,14.91,36.82,14.86,47.76
	c-39.05-0.48-59.58-9.09-70.02-16.35c-10.54-7.33-12.72-14.43-12.96-15.31c-0.61-3.78-4-6.31-7.79-6.02
	c-3.85,0.29-6.79,3.65-6.79,7.51c0,6.8-5.11,16.56-10.75,24.99C92.57,80.72,95.08,67.67,102.14,58.01z M116.52,203.48
	c4.07,0,6.61-3.05,6.61-7.13v-12.89c8,5.34,16.03,8.66,25,8.66c9.24,0,18-3.52,26-9.15v13.38c0,4.07,3.19,7.13,7.26,7.13h7.89
	l-40.82,31.93l-40.82-31.93L116.52,203.48L116.52,203.48z M190.38,278.67c-33.14,5.83-83.97,7.35-139.95-17.62
	c2.26-20.6,18.4-52.31,33.97-56.77l59.52,46.55c1.34,1.04,2.94,1.56,4.54,1.56c1.6,0,3.21-0.52,4.54-1.56l59.52-46.55
	c15.63,4.47,31.83,36.39,33.99,56.99C238.39,265.17,218.32,273.76,190.38,278.67z"/>
</svg>
