<svg width="21" height="18" viewBox="0 0 21 18" fill="none" xmlns="http://www.w3.org/2000/svg">
<path d="M18.2416 1.13625C18.0194 0.4725 17.3972 0 16.6638 0H4.44162C3.70829 0 3.09718 0.4725 2.86385 1.13625L0.552734 7.875V16.875C0.552734 17.4937 1.05273 18 1.66385 18H2.77496C3.38607 18 3.88607 17.4937 3.88607 16.875V15.75H17.2194V16.875C17.2194 17.4937 17.7194 18 18.3305 18H19.4416C20.0527 18 20.5527 17.4937 20.5527 16.875V7.875L18.2416 1.13625ZM4.44162 12.375C3.5194 12.375 2.77496 11.6213 2.77496 10.6875C2.77496 9.75375 3.5194 9 4.44162 9C5.36385 9 6.10829 9.75375 6.10829 10.6875C6.10829 11.6213 5.36385 12.375 4.44162 12.375ZM16.6638 12.375C15.7416 12.375 14.9972 11.6213 14.9972 10.6875C14.9972 9.75375 15.7416 9 16.6638 9C17.5861 9 18.3305 9.75375 18.3305 10.6875C18.3305 11.6213 17.5861 12.375 16.6638 12.375ZM2.77496 6.75L4.44162 1.6875H16.6638L18.3305 6.75H2.77496Z" fill="#38A169"/>
</svg>
