<svg xmlns="http://www.w3.org/2000/svg" viewBox="0 0 66 66"><path d="M44.48 7.43a4 4 0 01.22-1 4.21 4.21 0 01.35-1.16 1.29 1.29 0 011.63-.47 1.86 1.86 0 01.72 2.05c0 .31-.11.62-.18.92-.11.47-.23.5-.74.53a2.81 2.81 0 01-1.79-.39c-.13-.11-.2-.36-.27-.44m16.81 41.05c-1.72-.5-2.77-3.31-3.68-4.68a22.63 22.63 0 01-2.26-3.78c-1.22-2.89-1.31-5.82-1.43-8.89-.2-5-2.53-8.27-7.8-8.25-2.59 0-4.93-.05-6.58 2.27C36.18 29.81 38 34.07 39 39s5.81 8.3 9.57 11c3 2.11 5.79 5 9 6.69C60.36 58 62 54 61.76 51.81a11.79 11.79 0 00-.82-3.63" fill="#ff815f"/><path d="M.65 18.54c-1.09-1.85 4.16-3.44 5.2-3.91 3.35-1.48 6.56-3.22 10-4.48 4-1.44 7.8-3 11.7-4.63a19.41 19.41 0 015.24-1.64C36.81 3.51 37.07 8 38 11a68.08 68.08 0 005.43 13.32c1.9 3.3 4.14 6.38 6.07 9.68 1.24 2.12 2.77 4.2 3.57 6.55a11.38 11.38 0 01.83 3.87c-.2 3-4.27 4-6.53 5.1-6.88 3.46-14.22 6.15-21 9.8-2 1-4.32 3.09-6.64 3.11-1.48 0-1.8-.54-2.51-1.76-1.06-1.81-2.2-3.64-3.09-5.55-3.37-7.26-5.33-15-8.2-22.39-1.63-4.22-3.49-8.24-4.89-12.52a17.42 17.42 0 01-.52-1.71.79.79 0 01.57-.29" fill="#a5680e"/><path d="M11.76 10.46c-2.38.83-6.74 3.64-9.3 3.75.27 1.87 2.13 4 2.88 5.87S6.57 24 7.16 26a73.26 73.26 0 005.11 12 69.27 69.27 0 014 9.91c.78 2.4 1.17 4.91 2 7.27.45 1.27 1 2.61 1.57 3.83 1.24-.28 2.68-1.72 3.76-2.43a42.84 42.84 0 015.57-3.12c3.88-1.76 7.95-3.07 11.89-4.68 2.33-1 4.7-1.77 7-2.79a9.63 9.63 0 002.65-1.22c-2.48-1.89-3.89-6.27-4.59-9.18a40.07 40.07 0 00-1.48-5.49c-.8-2-2.09-3.78-3-5.74C39 18.58 37.82 12.23 35.11 6.5a37.45 37.45 0 01-1.75-4c-1.58.11-3.81 1.6-5.33 2.21-2.15.87-4.37 1.45-6.59 2.12S17.11 8 15 8.68a31 31 0 00-3.34 1.47c-1.34.59.39-.41-.62.68l.74-.74" fill="#f1f1f1"/><path d="M9.19 14.64c-.47-.23-.52-2.13-.49-2.62a4.58 4.58 0 011.39-3 7.57 7.57 0 012.29-1.52c.37-.17.75-.35 1.13-.5s.65-.1.86-.28.22-1.14.43-1.66a2.84 2.84 0 011-1.33 2.22 2.22 0 012.87.27c-1.25.49-1.63.08-2.36.52-.33.19 0 1.15.48 1.24.86.16 1-.9.37-1.57a6 6 0 011-.25c.38-.09.27-.13.58.14s.49.84.7.91 1.23-.39 1.56-.51.53-.19.81-.27A4.77 4.77 0 0122.93 4a8.51 8.51 0 012.52 0 4.77 4.77 0 013.12 3c0 .1.21.4.17.5-.12.28-1.1.48-1.36.56-.69.23-1.39.41-2.08.63a47.46 47.46 0 00-5.65 2.41l-6.65 3c-1.15.48-2.46 1.38-3.7 1.51-.08-.33 0-1.08-.3-1.28" fill="#cac2b7"/><path d="M40.83 39.29a11.24 11.24 0 00.17 3.18c.17.54.61.43 1.06.64a10.07 10.07 0 00.72-1.74c.15-.33.28-.66.45-1a3.33 3.33 0 00.49-1.52c0-.74.12-1.45-.64-1.81a.93.93 0 00-1.31.38 5 5 0 00-.9 1.77.12.12 0 010-.12" fill="#bf8c32"/><path d="M44.17 10.37c-.63 1.2-.53 3.09-.77 4.45a89.01 89.01 0 00-.75 5.16c-.32 2.79-.42 5.61-.76 8.39-.29 2.5-.43 5-.7 7.47a14.56 14.56 0 00-.39 3.7c.71-.64.9-.1 1.13.66a3 3 0 00.83-.66c.07.14.32.31.38.5.16-.17.41-.43.55-.61.16-2.85.77-5.67.88-8.55s.42-5.55.73-8.27c.29-2.46.57-4.91.87-7.35a19.05 19.05 0 00.52-4.12 5.09 5.09 0 01-2.57-.78c.06-.13 0-.23.05-.36" fill="#f7bc00"/><path d="M45.94 11.59a17.85 17.85 0 01-.59 3.75c-.21 1.22-.42 2.44-.72 3.64a60.65 60.65 0 00-.85 7.23c-.3 2.49-.39 5-.57 7.52-.11 1.46-.4 2.81-.48 4.25 0 .3-.13 1.18-.19 1.67 0 .26.36.26.6.39.81-.56.57-1.17.61-2s.27-1.73.37-2.63c.22-2.07.22-4.17.56-6.24.74-4.45 1-9 1.51-13.47.13-1.06.42-2.33.64-3.37.13-.6.07-.93-1-.61l.09-.1" fill="#a5680e" opacity=".2"/><path d="M50.92 31a7.37 7.37 0 00.81-4.59c-.55-2.22-2.82-2.93-4.72-3.6-2.18-.76-5.16-1.45-7.39-.38-2.86 1.37-1.25 4.16 1.25 4.65 2 .39 4 0 6 0" fill="#ff815f"/><path d="M39.39 23.11c.27.62 0 2 .48 2.52s2 .07 2.54-.14c2-.75.92-2.71-.75-2.85a4.36 4.36 0 00-2.32.36c.18-.07.35-.16.53-.24" fill="#ccc5ba" opacity=".5"/><path d="M43.77 11.42c.16.05.3.23.46.32a2 2 0 00.63.17c.42.07.87.14 1.3.17s.67-.12.73-.62a1.92 1.92 0 01.09-.59c.12-.24.27-.26.21-.56a2 2 0 01-.13-.75c0-.32.21-.25.33-.51s-.1-.43-.15-.64a1.72 1.72 0 010-.64A5.72 5.72 0 0144.56 7c-.2.18-.22.58-.27.85-.57-.16-.21.72-.17.94a2.31 2.31 0 01-.27 1.21c-.14.15-.35.12-.26.38s.23.13.22.43-.2.51 0 .68v-.06" fill="#cac2b7"/><path d="M41.09 42.73c0-.16.11-.37.27-.4 0 .58.66.12.62.47a1.27 1.27 0 01.19-.13c0 .28-.41 1.55-.79 1.52s-.26-1.38-.26-1.66" fill="#70685d"/><path d="M44.25 8.7c.23.9 2.12.68 2.8.72.12.59-1.84.07-2.12 0a2.19 2.19 0 01-.58-.19c-.19-.16-.12-.31-.16-.45m-.26 1.62c.24.9 2.13.68 2.81.71.11.59-1.84.07-2.13 0a1.6 1.6 0 01-.61-.21c-.2-.15-.12-.3-.17-.44" fill="#bfb8af"/><path d="M19.4 26.44c.88-.38 1.72-1 2.56-1.45l2.51-1.36c1.48-.81 3-1.55 4.54-2.28 1-.46 1.89-1 2.89-1.36.57-.23.8-.42 1 .24-1.32.56-2.65 1-4 1.62S26.3 23 25 23.76s-2.42 1.23-3.57 2c-.66.42-1.29.88-1.95 1.28-.08-.16-.15-.34-.07-.47m-8.91-3.92c1.36-.59 2.67-1.51 4-2.21s2.59-1.37 3.88-2.07C20.66 17.13 23 16 25.41 14.9c1.5-.71 2.93-1.48 4.48-2.08.89-.35 1.24-.63 1.61.37-2.06.85-4.13 1.55-6.16 2.47s-4.14 1.79-6.1 2.9-3.75 1.88-5.54 3c-1 .63-2 1.33-3 1.95-.12-.24-.23-.52-.11-.72m9.64 5.72c.87-.45 1.59-1.25 2.43-1.78a29.43 29.43 0 013-1.77c.9-.43 1.8-.89 2.71-1.29a13.84 13.84 0 011.9-.83 3 3 0 01.29.44c-1.17.51-2.36 1-3.52 1.52-.9.43-1.72 1-2.61 1.48A27 27 0 0020.19 29a.62.62 0 00-.06-.41.29.29 0 01.14-.08m-5.22-1.16a6.69 6.69 0 00-2 1.18c-.55.34-1 .46-.92 1.17a11.52 11.52 0 00.75 2.49c.15.47.22 1.36.77 1.45s1.59-.62 2-.9l1-.62a6.07 6.07 0 01.95-.56 5.59 5.59 0 00-.52-2.24l-.25-.65a1.5 1.5 0 000 1.29 2.48 2.48 0 01.22.91c-.13.43-1.3.91-1.69 1.13s-.81.54-1.23.76-.47.17-.65-.32a12.63 12.63 0 01-.48-1.7c-.06-.34-.19-.71-.22-1-.06-.65.65-1 1.16-1.37.22-.15 1.67-1.09 1.79-.64.25-.15.52-.56.12-.74s-1.06.39-1.27.61a.87.87 0 00.23-.16" fill="#ddd5ca"/><path d="M14 29.75s0-.08-.12-.07a2.27 2.27 0 00.66 2.1c.78-.5 1.28-1.8 1.75-2.59l1-1.61c.19-.32.69-.91.53-1.3-.4-1-1.71 1.55-1.9 1.86-.5.82-1 1.65-1.47 2.47a1.34 1.34 0 00-.45-1" fill="#8b7e75"/><path d="M18.82 34.89c-.41.06-.71.54-1 .79s-.59.47-.89.7a13.08 13.08 0 00-1.07.87 2.86 2.86 0 00-.63.72c-.23.58.21 1.37.37 1.93s.54 2.38 1.14 2.3c.21 0 .49-.28.68-.37.34-.16.68-.28 1-.44s.75-.39 1.14-.56a4.33 4.33 0 001.14-.51c.52-.46 0-1.41-.09-2s-.31-1-.38-1.5c-1 .46.5 2 .05 2.68-.29.45-1.45.73-1.93 1s-.72.33-1.09.48c-.11 0-.41.27-.51.26-.28 0-.41-.54-.49-.78a18 18 0 01-.48-1.78c-.23-1.15 1.71-2.19 2.6-2.74.25-.15.65-.33.74-.58a1 1 0 00-.05-.58c-.22-.18-.57.34-.57.34" fill="#ddd5ca"/><path d="M17.12 38.45c0 .46.25 2.26.78 2.54a3.56 3.56 0 00.62-1.56c.15-.45.29-.91.46-1.36.23-.62.49-1.22.77-1.81s.51-1 .77-1.47a1.57 1.57 0 00.29-.82c-1 .5-1.78 2.05-2.22 3.05a22.5 22.5 0 00-.79 2.45c-.05-.23-.11-1-.31-1.15s-.35.06-.37.34a.23.23 0 00.13-.17" fill="#8b7e75"/><path d="M22.41 35.3c1.59-.92 3.09-2 4.77-2.85 1.3-.64 2.7-1.19 4-1.77s2.73-1.37 4.15-1.86a2.12 2.12 0 01.08.41c-1.49.61-2.77 1.56-4.22 2.24-1.2.56-2.39 1.17-3.54 1.8S25.26 34.35 24.1 35a8.18 8.18 0 01-1.66 1 4 4 0 01-.09-.59m.71 2.13c.37-.8 2.18-1.54 3-1.95 1.19-.64 2.42-1.24 3.61-1.87.86-.46 1.74-.86 2.63-1.28a6.15 6.15 0 011.54-.67c.16.58-.47.55-.87.75-.75.37-1.44.92-2.17 1.34-1 .56-2 1.09-2.94 1.59-1.55.79-3.11 1.65-4.62 2.46 0-.18-.07-.33-.07-.5m1.01 1.68c.39-.62 1.78-1.21 2.44-1.62a24.32 24.32 0 012.27-1.17c1.16-.58 2.4-1 3.54-1.68A15.48 15.48 0 0135.66 33c.16.53-.88.72-1.22.92-.59.36-1.14.78-1.73 1.13-1 .61-2.09 1-3.13 1.58-1.86 1-3.68 2-5.45 3.18a1 1 0 01.11-.67m1.99 6.04c0-.58 1.38-.91 1.8-1.13.83-.43 1.62-.92 2.47-1.31 1.78-.82 3.4-1.89 5.14-2.75l3-1.49c.27-.14.82-.51.76.08A11.63 11.63 0 0037.06 40c-.58.4-1.24.63-1.83 1a32 32 0 01-4 2 35.69 35.69 0 00-3.8 2.16c-.42.25-1.6.61-1-.33m.68 3.17a26.63 26.63 0 003-1.55c1.13-.55 2.14-1.31 3.23-2s2.5-1.16 3.73-1.83a5.85 5.85 0 01.91-.51 2.85 2.85 0 01.12.72 17.5 17.5 0 00-4.69 2 64.48 64.48 0 00-3.32 1.9 19 19 0 00-3 2 1 1 0 01-.06-.49m-7.69-.46a38.26 38.26 0 014.6-2.44 22.76 22.76 0 00.9 3.23c.22.64.28 1.35.45 2-1.35.92-3.12 1.28-4.44 2.34-.41-.79-.66-1.63-1.08-2.41a6.27 6.27 0 01-.48-1.14 5.14 5.14 0 01-.25-.91c0-.65.19-.45.66-.85.09 1.59 1.23 2.65 1.7 4.13a5 5 0 002.07-.87c.2-.11 1.1-.43 1.2-.63.25-.51-.77-1.82-1-2.33a8.66 8.66 0 01-.36-1.37c-.85 0-2.08 1.16-2.88 1.58-.33.17-1.11.65-1-.1a.13.13 0 00-.11.13" fill="#ddd5ca"/><path d="M60.18 62.84s-5.84-6.48-6.34-7.52-.52-.94.38-2.15c.72-1 1.57-1.84 2.25-2.84.87-1.29 1.55-3.08 2.68-4.14 2.2 1.88 3.82 4 6.21 5.7a1.06 1.06 0 010 1c-.29.57-.87.92-.58 2a6.25 6.25 0 01-.18 3 2.7 2.7 0 01-.75 1.32 5.29 5.29 0 00-.92 2.7 4.31 4.31 0 01-.18 1.55 1.47 1.47 0 01-1.55.57 5.11 5.11 0 01-1.02-1.19z" fill="#fff"/></svg>