<svg xmlns="http://www.w3.org/2000/svg" viewBox="0 0 24 23.82"><defs><style>.cls-1{fill:#103dbe;}</style></defs><title>customer-sucess</title><g id="Layer_2" data-name="Layer 2"><g id="Layer_1-2" data-name="Layer 1"><path class="cls-1" d="M5.75,13A1.07,1.07,0,1,0,6.81,14,1.07,1.07,0,0,0,5.75,13Zm0,1.43A.36.36,0,1,1,6.11,14,.36.36,0,0,1,5.75,14.4Z"/><path class="cls-1" d="M15.06,19.5H13l-.65-2a.35.35,0,0,0-.52-.19.37.37,0,0,0-.16.2l-.64,2H8.94a.36.36,0,0,0-.31.17.35.35,0,0,0,.09.47l1.69,1.23-.65,2a.35.35,0,0,0,.27.45.37.37,0,0,0,.28-.07L12,22.52l1.68,1.22a.37.37,0,0,0,.29.07.35.35,0,0,0,.27-.45l-.65-2,1.69-1.23a.35.35,0,0,0,.09-.47A.36.36,0,0,0,15.06,19.5ZM13,20.95a.35.35,0,0,0-.13.39l.39,1.2-1-.74a.36.36,0,0,0-.41,0l-1,.74.39-1.2a.35.35,0,0,0-.13-.39l-1-.74h1.26a.35.35,0,0,0,.34-.24l.39-1.2.39,1.2a.35.35,0,0,0,.34.24H14Z"/><path class="cls-1" d="M23.64,19.5H21.56l-.65-2a.35.35,0,0,0-.52-.19.37.37,0,0,0-.16.2l-.64,2H17.51a.36.36,0,0,0-.31.17.35.35,0,0,0,.09.47L19,21.37l-.65,2a.35.35,0,0,0,.27.45.37.37,0,0,0,.28-.07l1.68-1.22,1.69,1.23a.35.35,0,0,0,.54-.39l-.65-2,1.69-1.23a.35.35,0,0,0,.09-.47A.36.36,0,0,0,23.64,19.5Zm-2.09,1.45a.35.35,0,0,0-.13.39l.39,1.2-1-.74a.35.35,0,0,0-.41,0l-1,.74.39-1.2a.35.35,0,0,0-.13-.39l-1-.74h1.26a.35.35,0,0,0,.34-.24l.39-1.2L21,20a.35.35,0,0,0,.34.24h1.26Z"/><path class="cls-1" d="M6.49,19.5H4.41l-.65-2a.35.35,0,0,0-.67,0l-.65,2H.36a.36.36,0,0,0-.31.17.35.35,0,0,0,.09.47l1.69,1.23-.64,2a.36.36,0,0,0,.06.35.35.35,0,0,0,.47.06l1.69-1.23,1.69,1.23a.35.35,0,0,0,.54-.39l-.65-2,1.69-1.23a.35.35,0,0,0,.09-.47A.36.36,0,0,0,6.49,19.5Zm-2.1,1.45a.35.35,0,0,0-.13.39l.39,1.2-1-.74a.36.36,0,0,0-.41,0l-1,.74.39-1.2a.35.35,0,0,0-.13-.39l-1-.74H2.7A.35.35,0,0,0,3,20l.39-1.2L3.82,20a.35.35,0,0,0,.34.24H5.42Z"/><path class="cls-1" d="M21.15,8.79a1.59,1.59,0,0,0,.6-1.26A1.61,1.61,0,0,0,20.12,6H14.48A9.83,9.83,0,0,0,15,4.16a4.41,4.41,0,0,0-.53-3.4A1.88,1.88,0,0,0,13.17,0a.75.75,0,0,0-.83.72A13.37,13.37,0,0,1,11.69,4,7.86,7.86,0,0,1,8,7.08a1.13,1.13,0,0,0-.85-.28H4.31C3.59,6.76,3,8.07,3,8.07v7.16s.61,1.31,1.33,1.32H7.18a1.34,1.34,0,0,0,1-.44,8.78,8.78,0,0,0,1.8.49h9.17A1.62,1.62,0,0,0,20.75,15a1.59,1.59,0,0,0-.4-1.08,1.59,1.59,0,0,0,.5-2.48,1.59,1.59,0,0,0,.3-2.67Zm-14,7.06H4.34a.6.6,0,0,1-.6-.6V8.1a.6.6,0,0,1,.6-.6H7.2a.6.6,0,0,1,.43.18v7.84a.35.35,0,0,0,0,.12A.6.6,0,0,1,7.2,15.84Zm11.47-6.7h1.46a.9.9,0,0,1,.91.81.89.89,0,0,1-.89,1H18.68a.36.36,0,0,0-.36.31.35.35,0,0,0,.35.39h1a.9.9,0,0,1,.91.81.89.89,0,0,1-.89,1H18.41a.36.36,0,0,0-.36.31.35.35,0,0,0,.35.39h.71a.9.9,0,0,1,.91.81.89.89,0,0,1-.89,1H9.93a2.6,2.6,0,0,1-1.49-.43,1.31,1.31,0,0,0,0-.24V8.08a1.3,1.3,0,0,0-.06-.39,8.35,8.35,0,0,0,3.89-3.4A14.36,14.36,0,0,0,13,.79v0a0,0,0,0,1,0,0h0a1.18,1.18,0,0,1,.81.48,3.77,3.77,0,0,1,.39,2.87,4.51,4.51,0,0,1-.67,2,.35.35,0,0,0,.27.57H20.1a.9.9,0,0,1,.91.81.89.89,0,0,1-.89,1H18.68a.36.36,0,0,0-.36.31A.35.35,0,0,0,18.67,9.14Z"/></g></g></svg>