<svg width="182" height="57" viewBox="0 0 182 57" fill="none" xmlns="http://www.w3.org/2000/svg">
<path d="M49.936 42.9611L49.1966 41.7099L48.5141 40.4017L47.4335 39.4349L46.1254 38.6955L45.386 37.4442L44.1916 36.5911L43.6797 35.283L42.3147 34.6005L41.5754 33.4061L40.6085 32.3824L40.0966 30.9605L38.8454 30.1642L38.2766 28.7992L37.4235 27.6617L36.286 26.7517L35.6035 25.4436L34.4091 24.5905L33.4422 23.3392L32.7597 24.363L32.5891 24.1355L31.4516 25.1024L30.9966 25.5005L30.371 25.728L30.5416 25.8986L30.371 26.183L29.1766 27.0361L28.2097 28.1736L27.186 29.2542L25.9347 30.1642L24.8541 31.188L23.6028 32.0411L22.8635 32.6099L22.0104 32.1549L20.9866 31.1311L20.4179 29.7092L19.5647 28.458L18.541 27.4342L16.9485 26.8655L16.3229 25.5005L15.2422 24.4767L14.3322 23.3392L13.3085 22.3155L12.5122 21.4624C12.5691 21.4055 12.626 21.3486 12.626 21.2917C12.4553 21.1211 12.3416 20.9505 12.171 20.7799L11.9435 19.6424L11.1472 18.3911L10.0097 17.9361C9.95285 17.993 9.95285 17.993 9.89598 18.0499C9.44098 17.4242 9.04285 16.7417 8.75847 15.8886C8.4741 14.8649 8.53097 14.0117 9.04285 13.2724C9.3841 12.7605 9.78222 12.3624 10.1804 11.9074C10.8629 11.2249 11.6022 10.5424 12.2847 9.85986C12.4553 9.68923 12.5691 9.51861 12.626 9.23423C12.626 9.06361 12.6828 8.89298 12.7397 8.66548C12.9103 8.72236 13.081 8.77923 13.2516 8.83611C13.3085 8.60861 13.3653 8.38111 13.4222 8.09673C13.5928 8.15361 13.7635 8.21048 13.9341 8.26736C13.991 8.03986 14.0478 7.81236 14.1047 7.52798C14.2753 7.58486 14.446 7.64173 14.6166 7.75548C14.6735 7.52798 14.7303 7.30048 14.7872 7.01611C14.9578 7.07298 15.1285 7.12986 15.2991 7.24361C15.356 7.01611 15.4129 6.78861 15.4697 6.50423C15.6404 6.56111 15.811 6.61798 15.9816 6.73173C16.0385 6.50423 16.0953 6.27673 16.1522 5.99236C16.3228 6.04923 16.4935 6.10611 16.6641 6.21986C16.721 5.99236 16.7779 5.76486 16.7779 5.48048C16.9485 5.53736 17.1191 5.59423 17.2897 5.70798C17.3466 5.48048 17.4035 5.25298 17.4604 4.96861C17.631 5.02548 17.8016 5.08236 17.9722 5.19611C18.0291 4.96861 18.086 4.74111 18.1428 4.45673C18.3135 4.51361 18.4841 4.57048 18.6547 4.68423C18.7116 4.45673 18.7685 4.22923 18.8253 3.94486C19.3372 4.39986 19.6785 4.05861 20.0766 3.71736C19.7922 3.26236 19.3941 2.97798 18.996 3.09173C18.086 3.31923 17.2328 3.66048 16.3797 4.11548C15.6972 4.51361 15.0716 4.85486 14.3891 5.25298C11.716 6.90236 9.27035 9.00673 7.05222 11.623C5.34597 13.4999 3.98097 15.6611 2.90035 18.1636C2.21785 19.813 1.6491 21.4624 1.30785 23.3392C1.08035 24.4767 1.25097 25.6142 1.70597 26.6949C1.8766 27.1499 2.16097 27.548 2.50222 27.6617C3.07097 27.8892 3.58285 27.2636 3.58285 26.4105C3.58285 25.5005 3.63972 24.6474 3.75347 23.7374C3.9241 22.3724 4.32222 21.178 5.00472 20.1542C5.34597 19.6424 5.80097 19.3011 6.4266 19.4149C6.82473 19.5286 7.16598 19.813 7.50723 20.1542C7.5641 20.2111 7.62098 20.3249 7.67785 20.3817L7.90535 21.178L8.64472 21.5761C8.87222 21.8605 9.09973 22.2017 9.3841 22.4861C9.44098 22.543 9.44098 22.543 9.49785 22.5999L9.72535 23.453L10.8629 24.363L12.0572 25.273L12.626 26.6949L13.5928 27.7755L14.446 28.9699L15.6972 29.823L16.5504 31.0174L17.6879 31.9842L18.9391 32.8374L19.5078 34.2592L20.361 35.4536L21.4985 36.4205L22.636 37.3874L23.4891 38.5249L24.5697 39.4917L25.1385 40.9136L25.9347 42.1649L26.8447 43.3024L27.9254 44.2692L28.8922 45.9186L30.5985 44.6105L31.9635 43.1886L30.6554 41.9942L29.9729 40.6292L29.006 39.5486L27.8685 38.5817L26.9585 37.4442L25.8778 36.4774L24.8541 35.6242L25.7641 34.5436L26.9016 33.5767L28.0391 32.6099L29.2903 31.7567L30.3141 30.6761L31.3947 29.6524L32.7029 28.913L33.0441 28.5149L33.6129 29.0267L34.5229 30.1074L35.3191 31.3017L35.9447 32.6099L37.3666 33.2924L37.8216 34.7711L38.8454 35.738L40.0397 36.5911L40.6085 37.9561L41.6891 38.8661L42.8266 39.7192L43.8503 40.6861L44.476 41.9942L45.7272 42.7905L46.296 44.1555L47.206 45.2361L48.1728 46.203L49.2535 44.838L50.5616 43.928L49.936 42.9611ZM16.4935 4.62736C13.8772 6.27673 11.261 7.98298 8.98598 10.258C11.2041 7.86923 13.7635 6.10611 16.4935 4.62736ZM3.52597 23.453C3.35535 24.4767 3.2416 25.6142 3.12785 26.5242C3.07097 24.363 3.4691 22.2586 4.26535 20.4955C4.09472 21.4055 3.75347 22.3724 3.52597 23.453ZM6.8816 18.2205C6.59723 18.1067 6.48348 17.7655 6.71098 17.4811C6.93848 17.1967 7.22285 16.8555 7.45035 16.5711C7.67785 16.2867 7.90535 16.4005 8.0191 16.8555C8.13285 17.2536 8.18973 17.6517 8.30348 17.993C8.4741 18.6186 8.18972 18.8461 7.7916 18.6186C7.50723 18.448 7.16598 18.3911 6.8816 18.2205Z" fill="white"/>
<path d="M68.9323 24.0787V29.0268H66.8848V17.2537H68.9323V22.1449H74.5629V17.2537H76.6104V29.0268H74.5629V24.0787H68.9323Z" fill="white"/>
<path d="M83.4923 17.2537V29.0268H81.4448V17.2537H83.4923Z" fill="white"/>
<path d="M94.1846 26.1262H94.1277L90.4308 20.6093V29.0268H88.3833V17.2537H90.6014L94.1846 22.8274L97.7677 17.2537H99.9858V29.0268H97.9383V20.5524L94.1846 26.1262Z" fill="white"/>
<path d="M115.911 29.0268H113.75L112.556 26.183H106.982L105.787 29.0268H103.683L108.859 17.1399H110.792L115.911 29.0268ZM109.769 19.6424L107.721 24.363H111.759L109.769 19.6424Z" fill="white"/>
<path d="M119.608 17.2537H121.655V27.1499H127.855V29.0268H119.608V17.2537Z" fill="white"/>
<path d="M143.041 29.0268H140.879L139.685 26.183H134.111L132.917 29.0268H130.812L135.988 17.1399H137.922L143.041 29.0268ZM136.841 19.6424L134.794 24.363H138.832L136.841 19.6424Z" fill="white"/>
<path d="M150.434 29.0268H148.33V24.363L143.666 17.2537H146.112L149.41 22.4862L152.766 17.2537H155.155L150.491 24.363V29.0268H150.434Z" fill="white"/>
<path d="M168.009 29.0268H165.848L164.653 26.183H159.08L157.885 29.0268H155.781L160.956 17.1399H162.89L168.009 29.0268ZM161.866 19.6424L159.819 24.363H163.857L161.866 19.6424Z" fill="white"/>
<path d="M179.952 17.2537H182V29.0268H180.293L173.81 20.6662V29.0268H171.762V17.2537H173.696L180.009 25.3868V17.2537H179.952Z" fill="white"/>
<path d="M92.8198 39.6624H91.7392V34.4299H89.7485V33.4061H94.8104V34.4299H92.8198V39.6624Z" fill="white"/>
<path d="M102.944 39.6624L101.408 37.5011H100.043V39.6624H98.9624V33.463H101.749C102.091 33.463 102.432 33.5199 102.716 33.5768C103.001 33.6905 103.228 33.8043 103.456 33.9749C103.626 34.1455 103.797 34.373 103.911 34.6005C104.024 34.828 104.081 35.1124 104.081 35.3968C104.081 35.6811 104.024 35.9086 103.967 36.0793C103.911 36.3068 103.797 36.4774 103.683 36.648C103.569 36.8186 103.399 36.9324 103.228 37.0461C103.057 37.1599 102.83 37.2168 102.602 37.2736L104.309 39.6055H102.944V39.6624ZM102.602 34.7143C102.375 34.5436 102.034 34.4299 101.636 34.4299H100.043V36.5343H101.636C102.034 36.5343 102.318 36.4205 102.546 36.2499C102.773 36.0793 102.887 35.7949 102.887 35.5105C102.944 35.1124 102.83 34.8849 102.602 34.7143Z" fill="white"/>
<path d="M113.01 34.4299H109.484V36.0224H112.612V36.9893H109.484V38.6955H113.067V39.6624H108.403V33.463H113.01V34.4299Z" fill="white"/>
<path d="M122.907 39.6624H121.599L119.494 36.8755L118.527 37.8424V39.6624H117.447V33.463H118.527V36.5911L121.485 33.463H122.85L120.291 36.1361L122.907 39.6624Z" fill="white"/>
<path d="M132.348 39.6624H131.04L128.935 36.8755L127.969 37.8424V39.6624H126.831V33.463H127.912V36.5911L130.869 33.463H132.234L129.675 36.1361L132.348 39.6624Z" fill="white"/>
<path d="M140.879 34.4299H137.353V36.0224H140.481V36.9893H137.353V38.6955H140.936V39.6624H136.272V33.463H140.879V34.4299Z" fill="white"/>
<path d="M149.24 39.6624L147.704 37.5011H146.339V39.6624H145.259V33.463H148.046C148.387 33.463 148.728 33.5199 149.013 33.5768C149.297 33.6905 149.524 33.8043 149.752 33.9749C149.923 34.1455 150.093 34.373 150.207 34.6005C150.321 34.828 150.378 35.1124 150.378 35.3968C150.378 35.6811 150.321 35.9086 150.264 36.0793C150.207 36.3068 150.093 36.4774 149.979 36.648C149.866 36.8186 149.695 36.9324 149.524 37.0461C149.354 37.1599 149.126 37.2168 148.899 37.2736L150.605 39.6055H149.24V39.6624ZM148.899 34.7143C148.671 34.5436 148.33 34.4299 147.932 34.4299H146.339V36.5343H147.932C148.33 36.5343 148.614 36.4205 148.842 36.2499C149.069 36.0793 149.183 35.7949 149.183 35.5105C149.24 35.1124 149.126 34.8849 148.899 34.7143Z" fill="white"/>
<path d="M155.667 35.3968C155.724 35.5105 155.781 35.5674 155.894 35.6243C156.008 35.6811 156.179 35.7949 156.349 35.8518C156.52 35.9086 156.804 35.9655 157.089 36.0793C157.43 36.1361 157.714 36.2499 157.942 36.3636C158.169 36.4774 158.397 36.5911 158.567 36.7049C158.738 36.8755 158.852 37.0461 158.966 37.2168C159.079 37.3874 159.079 37.6149 159.079 37.8993C159.079 38.1836 159.022 38.468 158.909 38.6955C158.795 38.923 158.624 39.1505 158.454 39.2643C158.283 39.4349 157.999 39.5486 157.771 39.6055C157.487 39.6624 157.202 39.7193 156.861 39.7193C156.406 39.7193 155.894 39.6624 155.496 39.4918C155.041 39.3211 154.643 39.0936 154.302 38.7524L154.984 37.9561C155.269 38.2405 155.61 38.4111 155.894 38.5818C156.179 38.6955 156.577 38.8093 156.918 38.8093C157.259 38.8093 157.544 38.7524 157.714 38.5818C157.885 38.4111 157.999 38.2405 157.999 38.013C157.999 37.8993 157.999 37.7855 157.942 37.7286C157.885 37.6149 157.828 37.558 157.714 37.5011C157.601 37.4443 157.487 37.3305 157.259 37.2736C157.089 37.2168 156.861 37.1599 156.577 37.0461C156.236 36.9893 155.951 36.8755 155.667 36.7618C155.382 36.648 155.212 36.5343 155.041 36.4205C154.871 36.2499 154.757 36.0793 154.643 35.9086C154.529 35.6811 154.529 35.4536 154.529 35.1693C154.529 34.8849 154.586 34.6574 154.7 34.4299C154.814 34.2024 154.927 34.0318 155.155 33.8611C155.326 33.6905 155.553 33.5768 155.837 33.5199C156.122 33.4061 156.406 33.4061 156.691 33.4061C157.146 33.4061 157.544 33.463 157.942 33.6336C158.34 33.8043 158.624 33.9749 158.966 34.2024L158.397 35.0555C158.112 34.828 157.828 34.7143 157.544 34.6005C157.259 34.4868 156.975 34.4299 156.691 34.4299C156.349 34.4299 156.122 34.4868 155.951 34.6574C155.781 34.828 155.667 34.9986 155.667 35.1693C155.61 35.1693 155.667 35.283 155.667 35.3968Z" fill="white"/>
<path d="M56.3063 20.723C56.1356 20.0405 55.9081 19.358 55.6806 18.7893C55.6238 18.6186 55.5669 18.448 55.51 18.2774C55.2825 17.6518 55.055 17.0261 54.7137 16.4574C53.4056 14.353 52.3819 12.7605 51.3013 11.2818C51.1875 11.168 51.1306 10.9974 51.0169 10.8836C50.6756 10.3149 50.2206 9.63239 49.3106 9.23426C48.9125 9.06364 48.5144 8.66551 48.1163 8.21051C47.8888 7.92614 47.6044 7.69864 47.32 7.41426C47.0925 7.24364 46.9219 7.07301 46.6944 6.90239C45.955 6.21989 45.1588 5.53739 44.3056 4.96864C43.8506 4.62739 43.3388 4.45676 42.8838 4.22926C42.4288 4.00176 41.9738 3.83114 41.6325 3.54676C40.0969 2.35239 38.3338 1.78364 36.5137 1.32864C35.49 1.04426 34.4094 0.873639 33.3856 0.703014C32.5894 0.589264 31.7363 0.418639 30.94 0.248014C29.9163 0.0205137 28.8925 -0.0363613 27.6981 0.0205137L26.7313 0.134264L26.845 1.04426C26.9019 1.27176 26.9019 1.55614 26.9019 1.78364L26.9588 2.29551L27.4706 2.52301C27.5275 2.52301 27.5844 2.57989 27.6413 2.57989C27.8687 2.75051 28.1531 2.86426 28.5513 2.92114C29.3475 2.97801 30.1438 3.03489 30.94 3.09176C32.0775 3.14864 33.2719 3.26239 34.4094 3.37614C35.0919 3.48989 35.8313 3.66051 36.5706 4.00176C37.0825 4.22926 37.5375 4.45676 38.1063 4.74114C38.675 5.02551 39.2438 5.36676 39.9263 5.65114C42.5994 6.73176 44.6469 8.72239 46.6375 10.713C48.7988 12.8174 50.3913 15.3199 51.5856 17.538C51.5856 17.5949 51.6425 17.6518 51.6425 17.6518L51.6994 17.7086C52.325 19.4149 52.9506 21.1211 53.5763 22.8843C53.5763 22.9411 53.6331 22.998 53.6331 23.1686C53.6331 23.3393 53.6331 23.453 53.6331 23.6236C53.6331 23.908 53.6331 24.1924 53.6331 24.4768C53.6331 24.7611 53.69 24.9886 53.7469 25.1593C53.8038 25.3299 53.8606 25.5005 53.8606 25.6143C54.0881 29.0836 53.8038 32.0411 53.1213 34.828C53.0644 35.1124 53.0075 35.4536 52.9506 35.738C52.78 36.5911 52.6663 37.3305 52.0406 37.7855C51.87 37.9561 51.6425 38.2405 51.5856 38.5249V38.923C51.5288 38.9799 51.4719 38.9799 51.415 39.0368C51.3013 39.1505 51.0738 39.378 50.9031 39.6055C50.4481 40.3449 50.05 41.1411 49.595 41.8805C49.1969 42.563 48.7988 43.3024 48.4006 43.9849C48.3438 44.0418 48.2869 44.1555 48.1731 44.2693C48.0025 44.4399 47.8888 44.6105 47.7181 44.7243C47.4906 44.9518 47.2631 45.1793 47.0356 45.4636C46.9219 45.5774 46.8081 45.748 46.7513 45.8618C46.6944 45.9755 46.5806 46.0893 46.5238 46.1461C46.0119 46.5443 45.5569 46.9424 45.045 47.2836C44.5331 47.6818 44.0213 48.0799 43.5094 48.478C43.2819 48.6486 43.0544 48.8193 42.8838 48.9899L42.6562 48.7055L38.1631 51.663L38.3906 52.0043C38.1631 52.0611 37.9356 52.118 37.6512 52.2318C37.0825 52.4024 36.4569 52.573 35.8313 52.8574C35.3763 53.0849 35.2625 53.0849 35.2625 53.0849C35.2625 53.0849 35.2056 53.028 35.0919 52.8574L34.7506 52.3455L32.305 53.028C32.1344 53.0849 31.9638 53.1418 31.85 53.1986C31.6225 53.2555 31.3381 53.3693 31.1106 53.4261C29.6319 53.7674 28.1531 53.5399 26.6744 53.3693C24.57 53.0849 22.8069 52.7436 21.1006 52.2318C19.1669 51.663 17.4606 50.753 15.7544 49.843C13.7069 48.7624 11.9438 47.3974 10.5788 45.9186C8.70188 43.928 6.825 41.7668 5.63063 39.1505C5.11875 37.7855 4.55 36.3636 3.98125 34.9418L3.58313 34.0318L3.24187 33.918C2.84375 33.7474 2.33188 33.5199 1.76313 33.1218L0 31.8705L0.455 33.918C1.19438 37.2736 2.55938 40.5724 4.72063 43.928C5.17563 44.6105 5.80125 45.1793 6.37 45.748C6.65438 46.0324 6.99563 46.3168 7.22312 46.6011C7.5075 46.9424 7.79188 47.2836 8.07625 47.6249C8.645 48.3074 9.15688 48.9899 9.89625 49.5586C10.8631 50.3549 11.8869 51.0374 12.9106 51.7199C13.3088 52.0043 13.7638 52.2886 14.1619 52.5161C15.8681 53.7105 17.9725 54.9049 20.7025 55.303C21.3281 55.3599 21.9538 55.5874 22.6363 55.8149C23.4894 56.0993 24.3994 56.3836 25.4231 56.4974C25.9919 56.5543 26.6175 56.6111 27.1863 56.668C28.0963 56.7818 29.0063 56.8955 29.9163 56.8955C29.9731 56.8955 30.03 56.8955 30.0869 56.8955C33.215 56.8386 36.1156 55.8149 38.5613 54.9049C46.9788 51.663 52.7231 45.9186 55.7944 37.7855C57.7281 32.553 57.8988 26.9793 56.3063 20.723Z" fill="white"/>
</svg>
