<svg id="Layer_1" data-name="Layer 1" xmlns="http://www.w3.org/2000/svg" viewBox="0 0 300 100" width="192" height="74"><defs><style>.cls-1{fill:#002366;}.cls-2{fill:#FF3C00;}</style></defs><path class="cls-1" d="M95,42v9H91.25V29.64H95v8.88h10.25V29.64h3.72V51h-3.72V42Z"/><path class="cls-1" d="M121.43,29.64V51h-3.72V29.64Z"/><path class="cls-1" d="M140.75,45.75h-.12l-6.68-10V51h-3.72V29.64h4l6.5,10.1,6.5-10.1h4V51h-3.72V35.68Z"/><path class="cls-1" d="M180.21,51h-4l-2.17-5.16H164L161.78,51h-3.85l9.4-21.52h3.48ZM169,34l-3.66,8.55h7.36Z"/><path class="cls-1" d="M186.92,29.64h3.72v18h11.23V51h-15Z"/><path class="cls-1" d="M229.32,51h-4l-2.17-5.16h-10.1L210.88,51H207l9.4-21.52h3.48Zm-11.2-17-3.66,8.55h7.36Z"/><path class="cls-1" d="M242.74,51H239V42.58l-8.48-12.94h4.43l6,9.46,6-9.46h4.3l-8.49,12.85Z"/><path class="cls-1" d="M274.67,51h-4l-2.17-5.16h-10.1L256.24,51h-3.85l9.4-21.52h3.48Zm-11.2-17-3.66,8.55h7.36Z"/><path class="cls-1" d="M296.28,29.64H300V51h-3.14L285.11,35.8V51h-3.72V29.64h3.47l11.42,14.77Z"/><path class="cls-2" d="M14,44c.92-1.13,1.94-2.43,2.75-3.48-1.22-1.33-2.39-2.73-3.5-4.22a9.56,9.56,0,0,1-1.57-3,3.94,3.94,0,0,1,.39-3.48,13.15,13.15,0,0,1,1.53-1.78c.91-.94,1.85-1.84,2.79-2.75a1.25,1.25,0,0,0,.44-.85,7.36,7.36,0,0,1,.14-.73l.68.26.2-.94.67.26.2-.95.67.27.2-1,.67.27.2-1,.68.27.2-1,.68.29.18-1,.68.27.2-1,.67.29.2-1,.67.28.21-1c.69.63,1.16.15,1.64-.34-.39-.62-.87-1-1.46-.84a11.88,11.88,0,0,0-3.46,1.36c-.87.51-1.77,1-2.63,1.51a40.3,40.3,0,0,0-9.7,8.43,33,33,0,0,0-5.35,8.66,34.16,34.16,0,0,0-2.11,6.83A7.35,7.35,0,0,0,2.3,47.6a2.14,2.14,0,0,0,1.09,1.29c.79.27,1.43-.53,1.46-1.68a34.54,34.54,0,0,1,.22-3.51A10.93,10.93,0,0,1,6.72,39a1.75,1.75,0,0,1,1.86-1A2.65,2.65,0,0,1,10,39c.83,1,1.64,2.09,2.45,3.14Q13.2,43.09,14,44ZM5.7,39.43c-.31,1.21-.73,2.53-1,3.93s-.37,2.84-.52,4.06A18.18,18.18,0,0,1,5.7,39.43Zm6.17-13.5a35.83,35.83,0,0,1,10-7.49A54.94,54.94,0,0,0,11.88,25.93ZM10.32,37c-.39-.22-.81-.34-1.21-.52a.61.61,0,0,1-.22-1c.32-.41.65-.81,1-1.21s.63-.19.76.35.24,1,.34,1.49C11.23,36.94,10.85,37.26,10.32,37Z"/><polygon class="cls-2" points="64 73.43 62.73 72.17 61.51 70.75 60.74 68.95 59.09 67.91 58.25 66.17 56.87 64.89 55.33 63.75 53.88 62.53 53.14 60.7 51.6 59.56 50.22 58.28 49.59 56.36 47.74 55.49 46.87 53.77 45.82 52.2 44.59 50.8 43.21 49.52 41.93 48.16 40.28 46.52 42.94 45.48 44.37 43.31 45.64 44.95 47.21 46.07 48.1 47.77 49.69 48.87 50.84 50.35 51.57 52.18 53.2 53.25 53.85 55.15 55.13 56.52 56.14 58.11 57.93 59.03 58.62 60.9 60.2 62.01 61.16 63.65 62.91 64.61 64.31 65.88 65.19 67.58 66.17 69.2 67.17 70.42 65.45 71.63 64 73.43"/><polygon class="cls-2" points="31.33 60.88 29.66 59.16 28.01 57.24 29.72 55.84 31.3 54.67 32.95 53.57 34.41 52.25 36 51.08 37.34 49.61 38.64 48.11 40.24 46.95 41.74 45.67 43.28 44.37 44.61 46.36 46.16 47.98 44.73 49.16 43.38 50.61 41.63 51.6 40.2 52.95 38.81 54.35 37.17 55.47 35.7 56.78 34.19 58.04 32.89 59.55 31.33 60.88"/><path class="cls-1" d="M73.52,40a23.12,23.12,0,0,0-.79-2.41,16.75,16.75,0,0,0-1.22-2.92c-1.41-2.31-2.88-4.59-4.47-6.78-.6-.83-1-1.83-2.17-2.35S62.94,23.83,61.95,23a44.07,44.07,0,0,0-3.87-3.21C57,19,55.48,18.69,54.43,17.85a16,16,0,0,0-6.35-2.71c-2.42-.62-4.93-.85-7.36-1.4a13.52,13.52,0,0,0-4-.25c0,.36.08.73.1,1.09a3.73,3.73,0,0,0,1.08.44c2.58.23,5.18.35,7.76.63a11.71,11.71,0,0,1,3.24.88c1.49.63,2.86,1.56,4.36,2.17,3.7,1.51,6.49,4.2,9.28,6.91a39.66,39.66,0,0,1,6.76,9.3,3,3,0,0,1,.23.41q1.24,3.42,2.47,6.84a2.48,2.48,0,0,1,.13.77c0,.54-.06,1.09,0,1.62s.28,1.07.31,1.61a41.78,41.78,0,0,1-1,12.54c-.38,1.55-.29,3.44-1.82,4.59-.08.06-.18.23-.15.26.69.85-.17,1-.59,1.4a1.92,1.92,0,0,0-.41.47c-1.1,1.94-2.18,3.89-3.28,5.84a3.07,3.07,0,0,1-.44.56c-.48.52-1,1-1.46,1.56a8.26,8.26,0,0,1-.81,1c-1.3,1-2.65,2-4,3.08-.74.59-1.42,1.27-2.12,1.9l-.17-.15.38-.6-.17-.2-4.1,2.7.14.2,1.12-.42.15.36a17.1,17.1,0,0,1-2,1,31.82,31.82,0,0,0-3.59,1.14c-1.21.6-1.71.65-2.4-.3l-2.46.69c-.56.16-1.1.35-1.67.49a17,17,0,0,1-6.3-.06,55.3,55.3,0,0,1-7.54-1.51,36.28,36.28,0,0,1-7.29-3.22A27.23,27.23,0,0,1,13.37,74a36.07,36.07,0,0,1-6.78-9.3c-1-2.13-1.83-4.31-2.7-6.49A11.19,11.19,0,0,1,1.7,57.05,39,39,0,0,0,7.22,69.94a28,28,0,0,0,3.2,3.38,39.18,39.18,0,0,0,3.43,3.84c1.73,1.44,3.7,2.6,5.56,3.87a18.61,18.61,0,0,0,8.21,3.48c2.07.27,4,1.42,6.19,1.55s4.07.52,6.09.49A31.35,31.35,0,0,0,50.74,84c10.61-4.1,18.17-11.31,22.15-22C75.58,54.73,75.4,47.37,73.52,40Z"/><path class="cls-1" d="M39.71,87.7a32,32,0,0,1-3.61-.27c-.78-.09-1.58-.18-2.35-.22a14.18,14.18,0,0,1-3.7-.87,14,14,0,0,0-2.58-.69A19.75,19.75,0,0,1,18.77,82c-.54-.37-1.1-.73-1.65-1.09a41.78,41.78,0,0,1-4-2.85,17.94,17.94,0,0,1-2.38-2.57c-.38-.46-.75-.93-1.15-1.37S8.84,73.35,8.43,73a12.9,12.9,0,0,1-2.17-2.4A39.94,39.94,0,0,1,.59,57.29L0,54.55,2.34,56.1a10.05,10.05,0,0,0,2,1.06l.47.18.49,1.23c.75,1.88,1.52,3.82,2.37,5.68a35.09,35.09,0,0,0,6.58,9,26.1,26.1,0,0,0,6.88,5.19,35.37,35.37,0,0,0,7.06,3.13A53.71,53.71,0,0,0,35.54,83a16.13,16.13,0,0,0,5.89.08c.33-.08.66-.18,1-.28l.62-.19,3.24-.91.47.65a1.23,1.23,0,0,0,.25.28,7.54,7.54,0,0,1,.72-.34,12.13,12.13,0,0,1,2.39-.81l1-.27-.33-.45,5.93-3.91.32.37c.27-.24.55-.48.83-.72.66-.53,1.33-1,2-1.55s1.31-1,2-1.52a2.16,2.16,0,0,0,.28-.35,5.48,5.48,0,0,1,.4-.52c.29-.32.59-.63.88-.94l.59-.63a2.28,2.28,0,0,0,.28-.34l1.57-2.79,1.71-3a3,3,0,0,1,.65-.77l.21-.16v-.54a1.61,1.61,0,0,1,.6-1,3.92,3.92,0,0,0,1.17-2.74c.07-.42.14-.83.24-1.22a40.41,40.41,0,0,0,.95-12.2,3.78,3.78,0,0,0-.12-.64,6.09,6.09,0,0,1-.18-.93,8.12,8.12,0,0,1,0-1.12c0-.2,0-.39,0-.59a1.34,1.34,0,0,0-.06-.41q-1.22-3.42-2.47-6.83l0-.07-.11-.18a38.69,38.69,0,0,0-6.56-9c-2.65-2.57-5.39-5.24-8.92-6.67a24.27,24.27,0,0,1-2.38-1.17c-.68-.37-1.33-.72-2-1a10.59,10.59,0,0,0-2.92-.8c-1.52-.17-3.09-.28-4.6-.39-1-.07-2.09-.15-3.13-.24a3.16,3.16,0,0,1-1.21-.42l-.21-.11-.66-.28,0-.71c0-.33,0-.67-.09-1l-.16-1.2,1.21-.09a14.65,14.65,0,0,1,4.31.28c1.06.24,2.17.42,3.25.6,1.36.22,2.77.46,4.15.81A17.07,17.07,0,0,1,55.15,17a7.52,7.52,0,0,0,1.68.89,11,11,0,0,1,1.89,1,33.14,33.14,0,0,1,3.17,2.58l.8.71c.38.33.71.68,1,1a5.84,5.84,0,0,0,1.61,1.36,5.09,5.09,0,0,1,2.28,2.2c.11.18.23.36.35.53,1.39,1.92,2.79,4,4.51,6.85a12.55,12.55,0,0,1,1.07,2.44l.24.67a24.32,24.32,0,0,1,.82,2.53h0C76.75,48,76.53,55.45,74,62.34,70,73.09,62.28,80.72,51.15,85a32.58,32.58,0,0,1-11.23,2.67Zm5.74-3.35-1.78.5L43.1,85l-.55.17a26.31,26.31,0,0,0,3.1-.68Zm9.39-3.5h0l1-.52-.08-.07ZM70.09,65.51l-.27.18a1.46,1.46,0,0,0-.18.12,1,1,0,0,0-.17.18l-1.71,3-1.11,2A35.2,35.2,0,0,0,70.09,65.51Zm.75-1.76,0,.13.13-.3Zm2.79-16.54A41.63,41.63,0,0,1,72.57,59c-.07.28-.12.58-.17.88A32.41,32.41,0,0,0,73.63,47.21Zm-.38-2.95c0,.06,0,.12,0,.18a3.19,3.19,0,0,0,.09.47Q73.31,44.59,73.26,44.26Z"/><path class="cls-2" d="M40.63,67.91l-.88-1.79-1.28-1.44-1.55-1.22-1.19-1.53-1.44-1.31-1.47-1.28L31.44,58l-.37-2.22-1.86-.95-1.39-1.35-.73-1.91L26,50l-1.38-1.35-2.1-.74L21.66,46l-1.45-1.3L19,43.23l-1.35-1.39-1.38-1.36-.47-2.14-1-1.65-1.5-.63c-.93.94-2.11,2.07-3.11,3l.33,1.3,1.81,1,.56,2.06,1.54,1.22L16,45.86l.78,1.87L18,49.19l1.12,1.58,1.64,1.13,1.11,1.59,1.48,1.27L25,55.88l.78,1.87L27,59.31l1.47,1.28,1.49,1.26,1.17,1.54,1.46,1.29.74,1.91,1,1.66,1.22,1.49L37,71l1.29,2.17,2.27-1.77,1.83-1.9Z"/><path class="cls-2" d="M138.21,70.28h-2V60.85h-3.58V59h9.15v1.84h-3.58Z"/><path class="cls-2" d="M156.58,70.28l-2.78-3.93h-2.49v3.93h-2V59h5a5.71,5.71,0,0,1,1.75.25,3.79,3.79,0,0,1,1.32.71,3.06,3.06,0,0,1,.83,1.13,4,4,0,0,1,.09,2.75,3.26,3.26,0,0,1-.56,1,3.35,3.35,0,0,1-.85.72,4.2,4.2,0,0,1-1.09.46l3,4.27Zm-.65-9a2.76,2.76,0,0,0-1.73-.48h-2.89v3.8h2.91a2.59,2.59,0,0,0,1.7-.52,1.71,1.71,0,0,0,.63-1.39A1.68,1.68,0,0,0,155.94,61.28Z"/><path class="cls-2" d="M174.81,60.8h-6.38v2.9h5.65v1.79h-5.65v3h6.46v1.79h-8.42V59h8.34Z"/><path class="cls-2" d="M192.71,70.28h-2.4l-3.85-5.07L184.7,67v3.27h-2V59h2v5.67L190.06,59h2.43l-4.69,4.85Z"/><path class="cls-2" d="M209.86,70.28h-2.4l-3.85-5.07L201.85,67v3.27h-2V59h2v5.67L207.22,59h2.43L205,63.86Z"/><path class="cls-2" d="M225.38,60.8H219v2.9h5.65v1.79H219v3h6.46v1.79H217V59h8.34Z"/><path class="cls-2" d="M240.54,70.28l-2.78-3.93h-2.49v3.93h-2V59h5a5.71,5.71,0,0,1,1.75.25,3.79,3.79,0,0,1,1.32.71,3.06,3.06,0,0,1,.83,1.13,4,4,0,0,1,.09,2.75,3.26,3.26,0,0,1-.56,1,3.35,3.35,0,0,1-.85.72,4.2,4.2,0,0,1-1.09.46l3,4.27Zm-.65-9a2.76,2.76,0,0,0-1.73-.48h-2.89v3.8h2.91a2.59,2.59,0,0,0,1.7-.52,1.71,1.71,0,0,0,.63-1.39A1.68,1.68,0,0,0,239.89,61.28Z"/><path class="cls-2" d="M252.2,62.54a1.18,1.18,0,0,0,.41.45,3.29,3.29,0,0,0,.82.39q.52.18,1.33.37a12.86,12.86,0,0,1,1.57.5,3.94,3.94,0,0,1,1.14.67,2.65,2.65,0,0,1,.69.92,3,3,0,0,1,.23,1.23,3.32,3.32,0,0,1-.3,1.43,3,3,0,0,1-.82,1.06,3.62,3.62,0,0,1-1.27.66,5.56,5.56,0,0,1-1.63.23,7.09,7.09,0,0,1-2.5-.44,6.79,6.79,0,0,1-2.21-1.36l1.19-1.42a6.91,6.91,0,0,0,1.66,1.09,4.57,4.57,0,0,0,1.9.38,2.46,2.46,0,0,0,1.46-.39,1.22,1.22,0,0,0,.54-1,1.36,1.36,0,0,0-.11-.55,1.1,1.1,0,0,0-.39-.44,3.27,3.27,0,0,0-.77-.38,12.93,12.93,0,0,0-1.28-.37,13.57,13.57,0,0,1-1.61-.47,4.09,4.09,0,0,1-1.18-.64,2.56,2.56,0,0,1-.73-.93,3.2,3.2,0,0,1-.25-1.34,3.1,3.1,0,0,1,.29-1.34,3.14,3.14,0,0,1,.79-1,3.51,3.51,0,0,1,1.21-.67,4.91,4.91,0,0,1,1.54-.23,6.47,6.47,0,0,1,2.23.36A6.65,6.65,0,0,1,258,60.27L257,61.76a6.88,6.88,0,0,0-1.53-.86,4.14,4.14,0,0,0-1.53-.3,2.08,2.08,0,0,0-1.35.39,1.2,1.2,0,0,0-.48,1A1.35,1.35,0,0,0,252.2,62.54Z"/></svg>