<svg width="17" height="26" viewBox="0 0 17 26" fill="none" xmlns="http://www.w3.org/2000/svg">
<path d="M12.0893 18.4785C12.0893 16.4633 12.0706 14.448 12.108 12.4328C12.1266 11.6267 11.8838 11.0038 11.2672 10.4909C8.01636 7.79779 8.9692 3.6391 10.8188 1.25747C12.0893 -0.391355 14.051 -0.427996 15.3028 1.20251C16.7787 3.10781 17.3392 5.28792 16.7974 7.66955C16.5358 8.82372 15.8819 9.72141 14.9478 10.4542C14.3126 10.9489 14.0697 11.5534 14.0884 12.3595C14.1257 16.4816 14.107 20.6036 14.107 24.7257C14.107 25.3852 14.0697 25.9715 13.1729 25.9898C12.4442 26.0081 12.0706 25.7699 12.0893 24.9822C12.108 22.8204 12.0893 20.6403 12.0893 18.4785Z" fill="#38A169"/>
<path d="M2.52462 18.5883C2.52462 16.5181 2.50594 14.4296 2.52462 12.3594C2.52462 11.6999 2.33779 11.2052 1.70256 10.8571C0.600263 10.2343 0.00240469 9.19001 0.00240469 7.98087C-0.0162784 5.54428 0.077137 3.08937 0.170552 0.652779C0.170552 0.451256 0.506848 0.249734 0.674995 0.048211C0.82446 0.268054 1.10471 0.487897 1.10471 0.72606C1.14207 2.61304 1.10471 4.51835 1.14207 6.40533C1.14207 6.7351 1.47837 7.06486 1.6652 7.39463C1.83335 7.04654 2.13228 6.71678 2.15096 6.36869C2.20701 4.53667 2.15096 2.70464 2.18832 0.872621C2.18832 0.597818 2.4312 0.341335 2.56199 0.0665312C2.73013 0.341335 3.02906 0.597818 3.04775 0.872621C3.08511 2.74129 3.04775 4.59163 3.08511 6.46029C3.08511 6.77174 3.38404 7.08318 3.55219 7.39463C3.72034 7.08318 4.01927 6.77174 4.01927 6.44197C4.05663 4.57331 4.01927 2.72297 4.05663 0.854301C4.05663 0.579498 4.29951 0.323014 4.43029 0.048211C4.59844 0.323014 4.89737 0.597818 4.89737 0.872621C4.93474 2.74129 4.89737 4.59163 4.93474 6.46029C4.93474 6.77174 5.25235 7.06486 5.4205 7.3763C5.58864 7.06486 5.86889 6.7351 5.88757 6.42365C5.92494 4.55499 5.88757 2.70464 5.92494 0.835981C5.92494 0.579498 6.1865 0.304694 6.31728 0.048211C6.50411 0.304694 6.84041 0.561177 6.85909 0.817661C6.95251 3.12601 7.04592 5.45268 7.04592 7.76103C7.04592 9.11673 6.44806 10.1976 5.23366 10.9854C4.86 11.2236 4.61712 11.8831 4.59844 12.3594C4.54239 16.4815 4.56107 20.6035 4.57976 24.7256C4.57976 25.2935 4.59844 25.8614 3.81375 25.9713C2.91696 26.0996 2.52462 25.8065 2.52462 24.9088C2.52462 22.8019 2.52462 20.6951 2.52462 18.5883Z" fill="#38A169"/>
</svg>
