<svg xmlns="http://www.w3.org/2000/svg" viewBox="0 0 25.63 25.62"><defs><style>.cls-1{fill:#103dbe;}</style></defs><title>money</title><g id="Layer_2" data-name="Layer 2"><g id="Layer_1-2" data-name="Layer 1"><path class="cls-1" d="M25.62,15.34c0-3.4-1.4-7.85-5.3-9.45V4.2l1.16-.93a.44.44,0,0,0,.17-.35V.44A.44.44,0,0,0,21.2,0H19.88a.44.44,0,0,0-.31.13L19,.7,18.42.13A.44.44,0,0,0,18.11,0H16.35A.44.44,0,0,0,16,.13L15.46.7,14.89.13A.44.44,0,0,0,14.58,0H13.25a.44.44,0,0,0-.44.44V2.92a.44.44,0,0,0,.17.35l1.16.93v1.7c-3.9,1.6-5.3,6-5.3,9.45a7.22,7.22,0,0,0,.37,2.35l-.57,0H7.51a.44.44,0,0,0-.44-.44H3.53a.44.44,0,0,0-.44.44H0v.88H3.09V23H0v.88H3.09a.44.44,0,0,0,.44.44H7.07a.44.44,0,0,0,.44-.44v-.17l3.3,1.37a7.64,7.64,0,0,0,5.62.06l6.82-2.6a1.61,1.61,0,0,0,.9-.86,1.62,1.62,0,0,0-.29-1.76A6.13,6.13,0,0,0,25.62,15.34Zm-19,8.07H4v-5.3H6.63ZM13.69,2.7V.88h.7l.75.75a.44.44,0,0,0,.62,0l.75-.75h1.4l.75.75a.44.44,0,0,0,.62,0l.75-.75h.7V2.7l-1,.83h-5Zm5.74,1.71V5.74H15V4.42ZM23.35,21.3a.73.73,0,0,1-.41.39l-6.82,2.6a6.76,6.76,0,0,1-5-.05L7.51,22.73V18.55H8.63a9.48,9.48,0,0,1,4.22,1,3.13,3.13,0,0,0,1.39.33h3.43a.66.66,0,0,1,.15,1.31l-.17,0H12.37v.88H17.7a2.72,2.72,0,0,0,1-.22l3.69-1.57a.7.7,0,0,1,.55,0,.73.73,0,0,1,.4.41A.76.76,0,0,1,23.35,21.3Zm-.26-1.88a1.57,1.57,0,0,0-1,.07L19.2,20.7a1.53,1.53,0,0,0,0-.16A1.55,1.55,0,0,0,17.67,19H14.24a2.25,2.25,0,0,1-1-.24,10.36,10.36,0,0,0-3-1,6.05,6.05,0,0,1-.48-2.46c0-3.18,1.3-7.36,4.95-8.71h5.12c3.65,1.36,4.95,5.53,4.95,8.71A5.24,5.24,0,0,1,23.08,19.42Z"/><rect class="cls-1" x="4.86" y="21.65" width="0.88" height="0.88"/><path class="cls-1" d="M18.17,12.66l-1.6-.53a.33.33,0,0,1,.1-.64h1.11a.33.33,0,0,1,.33.33v.28H19v-.29a1.21,1.21,0,0,0-1.21-1.2h-.11V9.72h-.88v.88h-.11A1.21,1.21,0,0,0,16.29,13l1.6.53a.33.33,0,0,1-.1.64H16.67a.33.33,0,0,1-.33-.33v-.28h-.88v.29A1.21,1.21,0,0,0,16.67,15h.11v.88h.88V15h.11a1.21,1.21,0,0,0,.38-2.36Z"/><path class="cls-1" d="M17.23,8a4.86,4.86,0,1,0,4.86,4.86A4.86,4.86,0,0,0,17.23,8Zm0,8.84a4,4,0,1,1,4-4A4,4,0,0,1,17.23,16.8Z"/></g></g></svg>