<svg width="56" height="56" viewBox="0 0 56 56" fill="none" xmlns="http://www.w3.org/2000/svg">
<path d="M54.6169 50.532H48.0191L46.6444 43.7936C45.4535 37.7859 40.5062 33.2313 34.4558 32.4134V30.4994H35.3708V25.0397H34.4558V23.0344L31.1548 13.2028H31.4305L34.4558 15.2954V18.6625H36.2901V16.57L38.1245 17.8446V21.3944H39.9588V19.0279L41.7848 20.3025V24.1263H43.6192V21.5771L45.4535 22.8517V26.8582H47.2879V24.1263L49.1222 25.4009V29.5902H50.9566V26.6756L52.7909 27.9502V31.4087H54.6253V29.1334L54.993 29.4075L56 27.9502L54.6253 26.9496V26.8624H54.5334L39.9546 16.844L32.6214 11.8369V7.73903H31.4305L28.0418 0L24.653 7.73903H23.4622V11.8369L16.1289 16.844L1.55857 26.8624H1.46665V26.9537L0 27.9543L1.00701 29.4116L1.46665 29.1376V31.4128H3.301V27.863L5.13535 26.5884V29.5943H6.96971V25.4051L8.80406 24.1305V26.8624H10.6384V22.8559L12.4728 21.5813V24.1305H14.3071V20.3025L16.1415 19.0279V21.3944H17.9758V17.8446L19.8102 16.57V18.6625H21.6445V15.2954L24.6698 13.2028H24.9455L21.6445 23.0344V25.0397H20.7294V30.5036H21.6445V32.4176C15.5983 33.2355 10.6468 37.79 9.4559 43.7977L8.08118 50.5362H1.46665V54.1773H0.55156V56H55.532V54.1773H54.6169V50.532ZM52.7826 54.1773H39.9546V52.3547H52.7826V54.1773ZM38.1203 52.3547V54.1773H17.044V52.3547H38.1203ZM22.5429 26.8624H33.5407V28.6851H22.5429V26.8624ZM25.2923 9.56168H30.7912V11.3843H25.2923V9.56168ZM28.0418 4.55457L29.4165 7.74318H26.6671L28.0418 4.55457ZM23.458 23.3998L26.8467 13.2028H29.2285L32.6172 23.3998V25.0397H23.458V23.3998ZM23.458 30.5036H32.6214V32.3262H23.458V30.5036ZM11.1816 44.159C12.3725 38.3298 17.5037 34.1447 23.4622 34.1447H32.6256C38.5799 34.1447 43.7153 38.3339 44.9061 44.159L46.1889 50.532H9.89464L11.1816 44.159ZM3.301 52.3547H15.2097V54.1773H3.301V52.3547Z" fill="#38A169"/>
<path d="M12.4647 46.8909H14.2991V48.7135H12.4647V46.8909Z" fill="#38A169"/>
<path d="M16.1288 46.8909H17.9631V48.7135H16.1288V46.8909Z" fill="#38A169"/>
<path d="M19.7935 46.8909H21.6279V48.7135H19.7935V46.8909Z" fill="#38A169"/>
<path d="M23.4582 46.8909H25.2926V48.7135H23.4582V46.8909Z" fill="#38A169"/>
<path d="M27.1223 46.8909H28.9567V48.7135H27.1223V46.8909Z" fill="#38A169"/>
<path d="M30.7909 46.8909H32.6253V48.7135H30.7909V46.8909Z" fill="#38A169"/>
<path d="M34.4556 46.8909H36.29V48.7135H34.4556V46.8909Z" fill="#38A169"/>
<path d="M38.1203 46.8909H39.9547V48.7135H38.1203V46.8909Z" fill="#38A169"/>
<path d="M41.7851 46.8909H43.6194V48.7135H41.7851V46.8909Z" fill="#38A169"/>
</svg>
