<svg xmlns="http://www.w3.org/2000/svg" width="732.642" height="50" viewBox="0 0 732.642 50">
  <g id="Group_12" data-name="Group 12" transform="translate(-103 -700)">
    <g id="download" transform="translate(473.349 700)">
      <path id="logo-blue-box-small-45-9x45-a" d="M75.134,49.98H0V0H75.134Z" fill="#fff"/>
      <path id="Path_3" data-name="Path 3" d="M75.134,26.949V-.1H0V49.88H75.134V35.3c-.167,0,0-8.349,0-8.349" transform="translate(0 0.12)" fill="#006fcf"/>
      <path id="Path_4" data-name="Path 4" d="M65.93,21.7H71.62V13.8H65.428v1.1l-1.171-1.1H58.9v1.4l-1-1.4H48.025c-.335,0-.669.1-1,.1a2.553,2.553,0,0,0-.837.2c-.335.1-.5.1-.837.2v-.5H17.068l-.837,1.3-.837-1.3H8.7v1.4l-1-1.4H2.343L0,17.2v4.5H3.849l.669-1.1H5.857l.669,1.1H35.977v-1l1.171,1h8.2v-.6c.167.1.5.1.669.2s.5.1.669.2a3.429,3.429,0,0,0,1,.1h6.024l.669-1.1h1.339l.669,1.1h8.2v-1l1.339,1.1Zm9.2,10V24.3H29.116l-1.171,1-1.171-1H13.387v7.9H26.774l1.171-1,1.171,1h8.367V30.5h-.335a13.119,13.119,0,0,0,3.012-.3v2.1h6.024v-1l1.171,1H72.289a21.279,21.279,0,0,0,2.845-.6Z" transform="translate(0 2.797)" fill="#fff"/>
      <path id="Path_5" data-name="Path 5" d="M72.289,29.8H67.771v1.1h4.351c1.841,0,3.012-.7,3.012-1.7s-1-1.5-2.677-1.5H70.448c-.5,0-.837-.2-.837-.5s.335-.5.837-.5H74.3l.837-1.1H70.615c-1.841,0-3.012.7-3.012,1.6,0,1,1,1.5,2.677,1.5h2.008c.5,0,.837.2.837.5.167.4-.167.6-.837.6Zm-8.2,0H59.571v1.1h4.351c1.841,0,3.012-.7,3.012-1.7s-1-1.5-2.677-1.5H62.249c-.5,0-.837-.2-.837-.5s.335-.5.837-.5H66.1l.837-1.1H62.416c-1.841,0-3.012.7-3.012,1.6,0,1,1,1.5,2.677,1.5h2.008c.5,0,.837.2.837.5.167.4-.335.6-.837.6Zm-5.857-3.2V25.5H51.2v5.3h7.028V29.7h-5.02V28.6h4.853V27.5H53.213v-1h5.02v.1Zm-11.379,0c.837,0,1.171.3,1.171.6s-.335.6-1.171.6h-2.51V26.5l2.51.1Zm-2.51,2.3h1l2.677,1.9h2.51l-3.012-2c1.506-.2,2.343-.8,2.343-1.6,0-1-1.171-1.7-3.012-1.7H42.168v5.3h2.008l.167-1.9Zm-5.355-1.6c0,.4-.335.7-1.171.7H35.14V26.6h2.51c.837,0,1.339.3,1.339.7Zm-5.857-1.8v5.3H35.14V29h2.677C39.658,29,41,28.3,41,27.2c0-1-1.171-1.8-3.012-1.8l-4.853.1ZM30.12,30.8h2.51l-3.514-2.7,3.514-2.6H30.12l-2.175,1.7L25.77,25.5H23.26l3.514,2.6L23.26,30.7h2.51L27.945,29l2.175,1.8Zm-7.53-4.2V25.5H15.562v5.3H22.59V29.7H17.57V28.6h4.853V27.5H17.57v-1h5.02Zm40.662-9.4,3.514,3.2h2.51V15.1H67.269v3.5l-.5-.5-3.179-3H60.91v5.3h2.008V16.8l.335.4Zm-8.7-.1.669-1.1.669,1.1.837,1.2H53.715l.837-1.2Zm3.514,3.3h2.175l-3.849-5.3H53.715l-3.849,5.3h2.175l.837-1.1h4.351l.837,1.1Zm-9.371,0,.837-1.1h-.5c-1.506,0-2.343-.6-2.343-1.5v-.1c0-.9.837-1.5,2.343-1.5H51.2V15.1H48.862c-2.677,0-4.183,1.1-4.183,2.6v.1C44.679,19.4,46.185,20.4,48.695,20.4Zm-7.53,0h2.008V15.2H41.164Zm-4.351-4.2c.837,0,1.171.3,1.171.6s-.335.6-1.171.6H34.3V16.1l2.51.1ZM34.3,18.5h1l2.677,1.9H40.5l-3.012-2c1.506-.2,2.343-.8,2.343-1.6,0-1-1.171-1.7-3.012-1.7H32.128v5.3h2.008l.167-1.9Zm-3.681-2.3V15.1H23.594v5.3h7.028V19.3H25.6V18.2h4.853V17.1H25.6v-1h5.02ZM15.395,20.4h1.841l2.51-4.3v4.3h2.008V15.1H18.407L16.4,18.7l-2.008-3.6H11.044v5.3h2.008V16.1l2.343,4.3ZM4.518,17.1,5.187,16l.669,1.1.837,1.2H3.681l.837-1.2Zm3.514,3.3h2.175L6.359,15.1H3.849L0,20.4H2.175l.837-1.1H7.363l.669,1.1Z" transform="translate(0 2.775)" fill="#006fcf"/>
    </g>
    <g id="Components---Sprint-3" transform="translate(365.368 700)">
      <g id="assets-_-logo-_-mastercard-_-symbol" data-name="assets-/-logo-/-mastercard-/-symbol" transform="translate(0 0)">
        <path id="Fill-1" d="M18.775,42.725H40.552V3.416H18.775Z" transform="translate(10.603 1.929)" fill="#ff5f00" fill-rule="evenodd"/>
        <path id="Fill-2" d="M30.761,25A25,25,0,0,1,40.267,5.345,24.865,24.865,0,0,0,0,25,24.865,24.865,0,0,0,40.267,44.655,25,25,0,0,1,30.761,25" transform="translate(0 0)" fill="#eb001b" fill-rule="evenodd"/>
        <path id="Fill-4" d="M65.224,40.491v-.97h-.252l-.29.667-.29-.667h-.252v.97h.178v-.732l.272.631h.184l.272-.633v.733Zm-1.6,0v-.8h.324v-.164h-.823v.164h.323v.8ZM66,25A24.865,24.865,0,0,1,25.734,44.654a25.072,25.072,0,0,0,0-39.31A24.865,24.865,0,0,1,66,25Z" transform="translate(14.533 0)" fill="#f79e1b" fill-rule="evenodd"/>
      </g>
    </g>
    <g id="paypal" transform="translate(65.487 700)">
      <path id="Path_6" data-name="Path 6" d="M161.353,116.4a.974.974,0,0,0-1.464.736c-.035.32-.09.64-.158.976C157.821,126.781,153.984,131,148,131h-8.782a.976.976,0,0,0-.954.781L135.334,145.5l-.523,3.493a2.927,2.927,0,0,0,2.863,3.472h5.874a2.914,2.914,0,0,0,2.84-2.223l2.373-9.487h5.092c6.009,0,10.162-4.791,11.694-13.491h0A10.2,10.2,0,0,0,161.353,116.4Z" transform="translate(-85.772 -102.466)" fill="#03a9f4"/>
      <path id="Path_7" data-name="Path 7" d="M73.565,3.746A10.977,10.977,0,0,0,65.41,0H48.1a5.209,5.209,0,0,0-5.173,4.469L37.548,40.523a3.141,3.141,0,0,0,3.105,3.622h8.029a1.047,1.047,0,0,0,1.022-.841L52.664,29.43h8.573c7.44,0,12.355-5.228,14.614-15.556a12.438,12.438,0,0,0,.209-1.247A10.894,10.894,0,0,0,73.565,3.746Z" fill="#283593"/>
    </g>
    <g id="visa" transform="translate(173 524.4)">
      <path id="Path_8" data-name="Path 8" d="M184.8,227.309l8.992-46.909h14.05l-8.711,46.909Z" transform="translate(-124.993 -3.114)" fill="#3c58bf"/>
      <path id="Path_9" data-name="Path 9" d="M184.8,227.309,196.321,180.4h11.521l-8.711,46.909Z" transform="translate(-124.993 -3.114)" fill="#293688"/>
      <path id="Path_10" data-name="Path 10" d="M290.994,177.693a37.985,37.985,0,0,0-12.926-2.093c-14.05,0-24.166,6.542-24.166,15.962,0,7.065,7.025,10.729,12.645,13.084s7.306,3.925,7.306,6.019c0,3.14-4.5,4.71-8.43,4.71a32.471,32.471,0,0,1-13.488-2.617l-1.967-.785L248,222.7a48.562,48.562,0,0,0,16.017,2.617c14.893,0,24.728-6.542,24.728-16.486,0-5.5-3.653-9.682-12.083-13.084-5.058-2.355-8.149-3.663-8.149-6.019,0-2.093,2.529-4.187,8.149-4.187a27.438,27.438,0,0,1,10.678,1.832l1.405.523,2.248-10.205Z" transform="translate(-168.76)" fill="#3c58bf"/>
      <path id="Path_11" data-name="Path 11" d="M290.994,177.693a37.985,37.985,0,0,0-12.926-2.093c-14.05,0-21.637,6.542-21.637,15.962,0,7.065,4.5,10.729,10.116,13.084s7.306,3.925,7.306,6.019c0,3.14-4.5,4.71-8.43,4.71a32.471,32.471,0,0,1-13.488-2.617l-1.967-.785L248,222.7a48.562,48.562,0,0,0,16.017,2.617c14.893,0,24.728-6.542,24.728-16.486,0-5.5-3.653-9.682-12.083-13.084-5.058-2.355-8.149-3.663-8.149-6.019,0-2.093,2.529-4.187,8.149-4.187a27.438,27.438,0,0,1,10.678,1.832l1.405.523,2.248-10.205Z" transform="translate(-168.76)" fill="#293688"/>
      <path id="Path_12" data-name="Path 12" d="M386.781,180.4c-3.372,0-5.9.261-7.306,3.388L358.4,227.309h15.174l2.81-7.818h17.984l1.686,7.818h13.488l-11.8-46.909Zm-6.463,31.273c.843-2.345,5.62-13.812,5.62-13.812s1.124-2.867,1.967-4.691l.843,4.43s2.81,11.727,3.372,14.333h-11.8Z" transform="translate(-244.621 -3.114)" fill="#3c58bf"/>
      <path id="Path_13" data-name="Path 13" d="M390.153,180.4c-3.372,0-5.9.261-7.306,3.388L358.4,227.309h15.174l2.81-7.818h17.984l1.686,7.818h13.488l-11.8-46.909Zm-9.835,31.273c1.124-2.606,5.62-13.812,5.62-13.812s1.124-2.867,1.967-4.691l.843,4.43s2.81,11.727,3.372,14.333h-11.8Z" transform="translate(-244.621 -3.114)" fill="#293688"/>
      <path id="Path_14" data-name="Path 14" d="M72.275,213.776,70.87,207c-2.529-7.818-10.678-16.418-19.67-20.588l12.645,41.7H79.019L101.781,181.2H86.607Z" transform="translate(-33.216 -3.633)" fill="#3c58bf"/>
      <path id="Path_15" data-name="Path 15" d="M72.275,213.776,70.87,207c-2.529-7.818-10.678-16.418-19.67-20.588l12.645,41.7H79.019L101.781,181.2H89.417Z" transform="translate(-33.216 -3.633)" fill="#293688"/>
      <path id="Path_16" data-name="Path 16" d="M0,180.4l2.529.562c17.984,4.215,30.348,14.893,35.126,27.538L32.6,184.615c-.843-3.372-3.372-4.215-6.463-4.215Z" transform="translate(0 -3.114)" fill="#ffbc00"/>
      <path id="Path_17" data-name="Path 17" d="M0,180.4H0c17.984,4.215,32.877,15.174,37.655,27.819l-4.777-19.951a6.859,6.859,0,0,0-6.744-5.339Z" transform="translate(0 -3.114)" fill="#f7981d"/>
      <path id="Path_18" data-name="Path 18" d="M0,180.4H0c17.984,4.215,32.877,15.174,37.655,27.819L34.282,197.26c-.843-3.372-1.967-6.744-5.9-8.149Z" transform="translate(0 -3.114)" fill="#ed7c00"/>
      <g id="Group_7" data-name="Group 7" transform="translate(18.265 182.906)">
        <path id="Path_19" data-name="Path 19" d="M86.845,222.206l-9.554-8.774-4.5,9.806-1.124-6.451C69.141,209.045,60.992,200.529,52,196.4l12.645,41.289H79.819Z" transform="translate(-52 -196.4)" fill="#051244"/>
        <path id="Path_20" data-name="Path 20" d="M199.131,301.564,187.048,289.2,184.8,301.564Z" transform="translate(-142.065 -260.275)" fill="#051244"/>
        <path id="Path_21" data-name="Path 21" d="M272.447,274.8h0c1.124,1.124,1.686,1.967,1.405,3.091,0,3.372-4.5,5.058-8.43,5.058a30.543,30.543,0,0,1-13.488-2.81l-1.967-.843L248,290.817a45.563,45.563,0,0,0,16.017,2.81c8.992,0,16.3-2.529,20.513-7.025Z" transform="translate(-185.975 -250.933)" fill="#051244"/>
        <path id="Path_22" data-name="Path 22" d="M364,256.412h13.207l2.81-8.43H398l1.686,8.43h13.488L408.4,235.9l-16.86-16.3.843,4.5s2.81,12.645,3.372,15.455h-11.8c1.124-2.81,5.62-14.893,5.62-14.893s1.124-3.091,1.967-5.058" transform="translate(-266.52 -215.123)" fill="#051244"/>
      </g>
    </g>
    <g id="western-union" transform="translate(572.93 499.2)">
      <path id="Path_23" data-name="Path 23" d="M262.712,246.986A3.8,3.8,0,0,1,258.9,250.8H3.814A3.8,3.8,0,0,1,0,246.986V204.614A3.8,3.8,0,0,1,3.814,200.8H258.9a3.8,3.8,0,0,1,3.814,3.814" transform="translate(0 0)"/>
      <path id="Path_24" data-name="Path 24" d="M118.358,200.8H3.888A3.835,3.835,0,0,0,0,204.614v42.373A3.835,3.835,0,0,0,3.888,250.8H169.33Z" transform="translate(0 0)" fill="#474744"/>
      <path id="Path_25" data-name="Path 25" d="M41.469,200.8H3.888A3.835,3.835,0,0,0,0,204.614v42.373A3.835,3.835,0,0,0,3.888,250.8H92.44Z" transform="translate(0 0)" fill="#686865"/>
      <g id="Group_8" data-name="Group 8" transform="translate(9.071 206.416)">
        <path id="Path_26" data-name="Path 26" d="M27.6,228.479H20.256L16.8,211.2h6.048l1.3,10.8,1.728-10.8h6.911L34.511,222l1.3-10.8h6.048L38.4,228.479H30.623l-1.3-11.231" transform="translate(-16.8 -211.2)" fill="#ffdd12"/>
        <path id="Path_27" data-name="Path 27" d="M337.422,248.673H320.575L312.8,211.2h13.391l3.456,23.157L333.1,211.2h15.551l3.456,23.579,3.456-23.579h13.391l-8.207,37.473H344.333l-3.456-24" transform="translate(-152.973 -211.2)" fill="#ffdd12"/>
        <path id="Path_28" data-name="Path 28" d="M70.4,228.479V211.2H83.359v4.752H76.879v1.728h6.048V222H76.879v2.16h6.911v4.32" transform="translate(-41.458 -211.2)" fill="#ffdd12"/>
        <path id="Path_29" data-name="Path 29" d="M175.2,228.479V211.2h12.959v4.752h-6.479v1.728h6.048V222h-6.048v2.16h6.911v4.32" transform="translate(-89.671 -211.2)" fill="#ffdd12"/>
        <path id="Path_30" data-name="Path 30" d="M102.032,223.295h6.479a1.839,1.839,0,0,0,3.024,1.3c.432-.432.432-.432.432-.864v-.864l-.432-.432a8.788,8.788,0,0,0-2.16-.432c-.864-.432-1.728-.432-2.592-.864a8.683,8.683,0,0,1-3.456-1.728c-.864-.864-.864-1.728-.864-3.024a4.536,4.536,0,0,1,2.16-3.888,11.441,11.441,0,0,1,6.048-1.3c2.16,0,4.32.432,5.184,1.3a3.929,3.929,0,0,1,1.728,3.456v.432h-6.048a1.587,1.587,0,0,0-.432-1.3c-.432-.432-.432-.432-1.3-.432-.432,0-.864,0-.864.432-.432,0-.432.432-.432.864s.864,1.3,2.16,1.3c.432,0,.864.432,1.3.432a8.09,8.09,0,0,1,4.752,2.16,4.252,4.252,0,0,1,1.3,3.456,5.317,5.317,0,0,1-2.16,4.32c-1.3,1.3-3.456,1.728-6.048,1.728a12.545,12.545,0,0,1-6.048-1.3,4.536,4.536,0,0,1-2.16-3.888l.432-.864h0" transform="translate(-55.812 -211.2)" fill="#ffdd12"/>
        <path id="Path_31" data-name="Path 31" d="M154.319,211.2v4.752H150v12.527H143.52V215.952H139.2V211.2" transform="translate(-73.109 -211.2)" fill="#ffdd12"/>
        <path id="Path_32" data-name="Path 32" d="M208.8,228.847V212h8.639a16.924,16.924,0,0,1,5.616.864,4.488,4.488,0,0,1,1.728,3.456,6.14,6.14,0,0,1-.864,2.592,2.612,2.612,0,0,1-2.592,1.3,3.3,3.3,0,0,1,2.16.864,4.131,4.131,0,0,1,.864,3.024l.432,1.728v1.3c0,.432.432.864.432,1.728h-6.479c0-.432-.432-.864-.432-1.3v-2.16a2.538,2.538,0,0,0-.864-2.16,1.587,1.587,0,0,0-1.3-.432h-.864v6.048m0-9.935h.432c.864,0,1.3,0,1.728-.432a2.16,2.16,0,0,0,0-2.592c-.432-.432-.864-.432-1.728-.432h-.864v3.456Z" transform="translate(-105.129 -211.568)" fill="#ffdd12"/>
        <path id="Path_33" data-name="Path 33" d="M252.816,218.111v10.367H247.2V211.2h8.207l3.456,10.367V211.2h5.616v17.279h-8.207" transform="translate(-122.794 -211.2)" fill="#ffdd12"/>
      </g>
      <g id="Group_9" data-name="Group 9" transform="translate(53.653 226.61)">
        <path id="Path_34" data-name="Path 34" d="M252.816,256.879v10.367H247.2V250.4h8.207l3.456,9.935V250.4h5.616v16.847h-8.207" transform="translate(-169.014 -250.4)" fill="#ffc715"/>
        <path id="Path_35" data-name="Path 35" d="M147.584,256.879v10.367H142.4V250.4h7.775l3.888,9.935V250.4h5.184v16.847h-7.775" transform="translate(-120.802 -250.4)" fill="#ffc715"/>
        <path id="Path_36" data-name="Path 36" d="M102.4,250.4h6.479v10.8c0,.864,0,1.3.432,1.728s.432.432,1.3.432a1.587,1.587,0,0,0,1.3-.432c.432-.432.432-.864.432-1.728V250.4h6.479v10.367c0,2.592-.864,4.32-2.16,5.184-1.3,1.3-3.456,1.728-6.048,1.728a9.588,9.588,0,0,1-3.888-.432,9.036,9.036,0,0,1-2.592-1.728c-.432-.432-.864-1.3-1.3-1.728a6.405,6.405,0,0,1-.432-3.024" transform="translate(-102.4 -250.4)" fill="#ffc715"/>
        <rect id="Rectangle_3" data-name="Rectangle 3" width="6.911" height="16.847" transform="translate(44.06)" fill="#ffc715"/>
        <path id="Path_37" data-name="Path 37" d="M214.239,267.679a7.636,7.636,0,0,1-8.639-8.639c0-3.024.864-5.184,2.16-6.479,1.728-1.728,3.888-2.16,6.479-2.16,3.024,0,5.184.864,6.479,2.16,1.728,1.728,2.16,3.888,2.16,6.479,0,3.024-.864,5.184-2.16,6.479s-3.456,2.16-6.479,2.16m.432-13.391c-.864,0-1.3.432-1.3.864-.432.432-.432,1.728-.432,3.456a7.426,7.426,0,0,0,.432,3.456c.432.864.864.864,1.3.864.864,0,1.3-.432,1.3-.864.432-.864.432-1.728.432-3.888a7.426,7.426,0,0,0-.432-3.456c-.432,0-.864-.432-1.3-.432" transform="translate(-149.877 -250.4)" fill="#ffc715"/>
      </g>
      <g id="Group_10" data-name="Group 10" transform="translate(151.697 206.416)">
        <path id="Path_38" data-name="Path 38" d="M300.335,248.241h-2.16L290.4,211.2h2.16" transform="translate(-290.4 -211.2)" fill="#ffdd12"/>
        <path id="Path_39" data-name="Path 39" d="M311.535,248.241h-2.16L301.6,211.2h2.16" transform="translate(-295.552 -211.2)" fill="#ffdd12"/>
        <path id="Path_40" data-name="Path 40" d="M422.079,211.2v23.6a6.405,6.405,0,0,1-.864,3.371,3.289,3.289,0,0,1-5.184,0,7.785,7.785,0,0,1-.864-3.371V211.621h-3.024L404.8,246.176a10.375,10.375,0,0,0,4.752,2.528,24.824,24.824,0,0,0,8.639,1.264c6.048,0,10.8-1.264,13.823-3.793s4.32-6.321,4.32-11.8V211.621" transform="translate(-343.029 -211.2)" fill="#ffdd12"/>
      </g>
      <path id="Path_41" data-name="Path 41" d="M396.8,211.2v23.326a27.069,27.069,0,0,0,.864,6.911,8.963,8.963,0,0,0,2.592,4.32l7.343-34.125" transform="translate(-186.802 -4.784)" fill="#ffc715"/>
      <g id="Group_11" data-name="Group 11" transform="translate(248.457 207.711)">
        <path id="Path_42" data-name="Path 42" d="M469.6,215.7h.864v.432h.432c-.432,0-.432,0-.864-.432v-.864l.432-.432h1.3l.432.432h-.864V214.4h0c.432,0,.432,0,.864.432l.432.432v.864l-1.728.432h-.432c-.432,0-.864,0-.864-.432,0,0,0,0,0-.432" transform="translate(-469.6 -213.968)" fill="#ffdd12"/>
        <path id="Path_43" data-name="Path 43" d="M473.6,213.6h1.3l.432,1.728.432-1.728h.864v2.592h-.864v-1.728l-.432,1.728H474.9l-.432-1.728v1.728H473.6" transform="translate(-471.44 -213.6)" fill="#ffdd12"/>
      </g>
    </g>
  </g>
</svg>
