<svg width="14" height="16" viewBox="0 0 14 16" fill="none" xmlns="http://www.w3.org/2000/svg">
<path d="M13.6007 11.3062L10.5382 9.80614C10.4074 9.74242 10.262 9.72899 10.1239 9.76788C9.98579 9.80677 9.8625 9.89587 9.77255 10.0218L8.41628 11.9156C6.28773 10.7686 4.57474 8.81089 3.57116 6.37827L5.22822 4.82824C5.3386 4.72564 5.41673 4.58473 5.45077 4.42684C5.48481 4.26896 5.47292 4.10269 5.41689 3.95322L4.10437 0.453162C4.04287 0.292037 3.93411 0.160484 3.79684 0.0811864C3.65957 0.00188914 3.50239 -0.0201818 3.3524 0.0187795L0.508603 0.768793C0.363998 0.806955 0.234981 0.900007 0.14261 1.03276C0.0502382 1.16552 -3.3311e-05 1.33013 1.65602e-08 1.49974C1.65602e-08 9.51551 5.68486 16 12.6877 16C12.8362 16.0001 12.9803 15.9427 13.0965 15.8371C13.2127 15.7315 13.2942 15.5841 13.3276 15.4187L13.9838 12.1687C14.0177 11.9964 13.998 11.8161 13.9281 11.6587C13.8581 11.5012 13.7424 11.3766 13.6007 11.3062Z" fill="#222C62"/>
</svg>
