<?xml version="1.0" standalone="no"?>
<!DOCTYPE svg PUBLIC "-//W3C//DTD SVG 20010904//EN"
 "http://www.w3.org/TR/2001/REC-SVG-20010904/DTD/svg10.dtd">
<svg version="1.0" xmlns="http://www.w3.org/2000/svg"
 width="384.000000pt" height="384.000000pt" viewBox="0 0 384.000000 384.000000"
 preserveAspectRatio="xMidYMid meet">
<metadata>
Created by potrace 1.11, written by Peter Selinger 2001-2013
</metadata>
<g transform="translate(0.000000,384.000000) scale(0.100000,-0.100000)"
fill="#000000" stroke="none">
<path d="M1794 3793 c-16 -16 -19 -27 -5 -19 5 3 9 -11 10 -32 2 -95 16 -110
117 -126 11 -1 27 -7 34 -11 9 -5 11 -4 6 3 -4 7 -2 12 3 12 6 0 11 -3 11 -7
0 -5 15 -8 33 -9 17 0 84 -4 147 -9 63 -4 125 -8 138 -8 12 1 22 -2 22 -6 0
-4 12 -8 28 -9 48 -4 56 -7 124 -40 37 -17 72 -32 77 -32 6 0 11 -4 11 -8 0
-9 100 -57 113 -54 4 1 7 -2 7 -8 0 -5 3 -9 8 -8 11 2 45 -14 66 -31 10 -9 20
-15 22 -14 6 4 64 -32 64 -39 0 -5 6 -8 13 -8 7 0 20 -8 29 -17 8 -10 31 -29
49 -43 18 -14 50 -41 70 -60 133 -126 168 -162 204 -205 22 -27 48 -57 58 -67
9 -10 17 -20 17 -23 0 -9 44 -70 53 -73 4 -2 7 -10 7 -18 0 -8 5 -14 10 -14 6
0 10 -4 10 -10 0 -5 18 -38 40 -72 22 -35 40 -69 40 -75 0 -7 5 -13 10 -13 6
0 10 -5 10 -11 0 -9 62 -186 88 -249 3 -8 6 -19 7 -25 0 -5 6 -19 12 -30 9
-17 14 -62 26 -222 1 -18 6 -33 12 -33 7 0 7 -3 0 -8 -10 -7 -15 -113 -5 -107
3 2 5 -16 5 -41 0 -24 -2 -44 -5 -44 -3 0 -5 -21 -6 -48 -1 -83 -14 -195 -29
-252 -7 -30 -17 -75 -20 -100 -8 -49 -12 -72 -16 -80 -1 -3 -3 -9 -4 -15 -5
-25 -20 -52 -41 -71 -32 -30 -47 -61 -33 -69 6 -5 3 -12 -10 -21 -21 -15 -121
-178 -121 -197 0 -18 -25 14 -52 64 -13 26 -31 53 -39 61 -28 28 -89 70 -89
62 0 -4 -7 1 -15 12 -8 10 -15 15 -15 10 0 -11 -40 34 -40 45 0 12 -61 79 -72
79 -18 0 -39 29 -54 75 -9 25 -22 45 -30 45 -8 0 -14 4 -14 10 0 5 -11 12 -25
16 -23 6 -75 60 -75 77 0 4 -17 25 -39 48 -22 24 -46 64 -57 95 -10 30 -22 54
-27 54 -25 0 -68 47 -95 103 -32 66 -64 105 -109 132 -27 16 -73 75 -73 93 0
11 -76 72 -90 72 -6 0 -8 5 -5 10 3 6 1 10 -5 10 -6 0 -14 8 -17 18 -4 9 -13
23 -21 31 -12 13 -17 11 -33 -10 -10 -13 -19 -28 -19 -32 0 -5 -4 -6 -9 -3 -9
6 -43 -17 -91 -61 -14 -13 -33 -26 -42 -29 -10 -3 -18 -11 -18 -17 0 -7 -18
-23 -40 -37 -22 -13 -62 -49 -88 -79 -72 -83 -94 -105 -132 -131 -19 -14 -53
-42 -75 -62 -22 -21 -69 -57 -104 -82 -73 -50 -93 -49 -143 5 -15 16 -31 29
-35 29 -4 0 -19 28 -32 63 -13 34 -27 64 -30 67 -3 3 -19 22 -34 43 -41 55
-77 88 -88 82 -5 -4 -9 -2 -9 4 0 6 -12 14 -27 17 -16 4 -32 9 -38 13 -5 3
-14 6 -20 6 -5 0 -10 5 -11 10 -2 27 -37 85 -66 112 -18 16 -58 58 -88 93 -67
79 -119 130 -131 130 -4 0 -6 7 -2 16 3 9 0 20 -8 25 -8 4 -15 13 -15 19 -1 5
-2 11 -4 13 -1 1 -4 15 -6 30 -5 31 -42 95 -65 113 -8 6 -30 17 -50 24 -28 10
-43 25 -68 71 -18 33 -30 59 -26 59 3 0 1 9 -5 20 -14 27 -19 100 -6 100 5 0
6 3 3 6 -9 10 44 105 54 98 5 -3 9 0 9 6 0 6 45 56 100 111 55 54 100 102 99
106 -5 30 2 45 20 40 14 -3 21 2 25 18 5 18 11 22 28 18 13 -3 20 -2 16 2 -11
12 11 35 28 28 9 -3 14 2 14 17 0 17 5 21 19 17 14 -3 21 2 25 19 4 16 12 22
25 19 13 -2 21 3 24 17 4 15 11 19 24 14 9 -4 14 -4 11 0 -4 4 -3 15 3 26 8
15 13 17 24 8 11 -9 15 -7 21 14 4 17 13 26 25 26 13 0 19 7 19 22 0 16 3 19
11 11 9 -9 15 -8 25 2 8 7 14 18 14 23 0 5 10 8 23 6 12 -3 31 3 42 12 20 15
20 16 -7 38 -24 22 -30 23 -80 13 -29 -6 -55 -13 -58 -17 -3 -4 -16 -11 -30
-15 -14 -4 -42 -19 -62 -31 -21 -13 -42 -24 -48 -24 -5 0 -10 -5 -10 -11 0 -5
-4 -7 -10 -4 -5 3 -10 2 -10 -4 0 -6 -11 -13 -25 -17 -14 -3 -25 -10 -25 -15
0 -5 -6 -9 -13 -9 -7 0 -23 -9 -35 -20 -12 -11 -25 -20 -31 -20 -5 0 -11 -3
-13 -7 -1 -5 -22 -21 -45 -37 -24 -16 -54 -40 -68 -54 -14 -13 -25 -22 -25
-18 0 4 -12 -6 -26 -21 -15 -15 -30 -27 -35 -26 -5 2 -9 0 -9 -5 0 -4 -39 -48
-88 -97 -48 -50 -101 -108 -117 -130 -17 -22 -32 -42 -35 -45 -3 -3 -18 -23
-35 -45 -16 -22 -34 -43 -39 -47 -6 -4 -7 -8 -2 -8 5 0 1 -9 -9 -20 -10 -11
-14 -20 -9 -20 5 0 2 -6 -6 -13 -38 -31 -160 -302 -180 -400 0 -1 -7 -24 -15
-51 -8 -26 -12 -52 -9 -57 3 -5 0 -9 -7 -9 -6 0 -9 -8 -6 -20 3 -11 2 -20 -3
-20 -8 0 -5 -119 4 -160 18 -78 79 -147 109 -122 8 7 17 9 20 5 4 -3 8 -1 8 5
2 21 4 27 10 37 4 6 5 22 3 37 -1 15 2 31 8 34 7 4 6 9 -3 14 -10 7 -10 12 -1
22 9 11 9 17 0 26 -9 9 -9 12 0 12 14 0 12 21 -3 32 -6 5 -6 8 1 8 6 0 14 24
18 54 3 30 11 67 18 83 6 15 12 30 12 33 1 3 5 11 9 18 5 6 5 12 2 12 -12 0
56 90 76 101 12 6 36 8 54 5 34 -7 90 -60 80 -76 -3 -6 -1 -10 4 -10 6 0 11
-6 11 -14 0 -8 12 -22 28 -31 31 -19 82 -86 82 -109 0 -17 42 -66 58 -66 6 0
12 -4 14 -8 2 -5 23 -24 48 -43 25 -19 46 -37 47 -42 8 -29 44 -98 59 -114 27
-27 63 -74 80 -103 9 -14 33 -36 55 -50 22 -13 54 -46 72 -72 17 -26 35 -48
39 -48 4 0 18 -10 31 -22 27 -27 56 -49 82 -64 10 -6 23 -19 29 -30 6 -10 14
-21 17 -24 3 -3 11 -21 18 -40 6 -20 31 -57 54 -83 24 -26 41 -50 38 -53 -3
-3 -1 -4 5 -2 6 2 28 -12 47 -29 20 -18 41 -33 47 -33 6 0 8 -5 5 -11 -4 -6 2
-13 14 -16 12 -3 21 -11 21 -18 0 -15 95 -115 110 -115 5 0 10 -8 10 -18 0
-37 72 -162 127 -222 13 -14 23 -28 23 -32 0 -5 6 -8 13 -8 12 0 82 -75 82
-88 0 -4 9 -21 19 -39 15 -24 22 -28 31 -20 6 7 27 23 45 37 19 14 60 51 92
83 l57 59 -44 40 c-25 23 -55 62 -68 87 -12 25 -29 53 -38 62 -9 9 -18 21 -20
26 -2 5 -24 24 -49 43 -24 19 -54 46 -65 60 -11 14 -30 35 -42 48 -13 13 -23
27 -23 32 0 6 -4 10 -9 10 -4 0 -22 14 -39 30 -18 17 -36 30 -40 30 -5 0 -14
11 -20 24 -10 22 -6 29 52 83 90 84 134 121 180 153 23 15 76 61 118 101 42
41 94 83 115 94 21 11 45 26 53 34 10 9 15 10 18 2 2 -6 9 -11 15 -11 20 -1
109 -122 152 -205 14 -28 33 -46 64 -61 37 -18 47 -30 63 -70 18 -46 73 -108
142 -158 14 -10 26 -25 26 -32 0 -8 5 -14 10 -14 6 0 10 -10 10 -21 0 -19 28
-50 113 -124 9 -8 22 -15 27 -15 6 0 10 -4 10 -10 0 -5 4 -10 10 -10 16 0 74
-64 95 -106 24 -47 47 -71 72 -76 11 -2 30 -27 47 -63 16 -33 40 -70 53 -82
13 -12 23 -28 23 -35 -1 -15 -60 -97 -60 -82 0 4 -10 -2 -22 -14 -13 -13 -52
-44 -88 -70 -35 -26 -76 -57 -89 -70 -14 -13 -27 -19 -29 -13 -5 15 -18 14
-34 -2 -7 -7 -31 -24 -53 -37 -22 -13 -42 -27 -45 -31 -3 -4 -24 -17 -47 -29
-24 -12 -43 -26 -43 -31 0 -5 -6 -9 -12 -9 -20 -1 -71 -47 -64 -58 5 -8 -17
-18 -61 -28 -30 -6 -89 -28 -100 -37 -7 -5 -13 -6 -13 -1 0 5 -4 3 -9 -4 -6
-11 -13 -8 -27 11 -21 26 -24 27 -108 2 -32 -9 -64 -18 -70 -19 -6 -1 -15 -4
-21 -7 -24 -14 -114 -30 -175 -31 -46 -1 -180 11 -189 16 -4 3 -28 6 -54 7
-26 2 -47 6 -47 9 0 4 -6 7 -12 7 -52 1 -250 45 -305 68 -17 7 -34 11 -37 7
-3 -3 -6 0 -6 6 0 7 -9 12 -19 12 -21 0 -122 49 -133 65 -4 5 -8 7 -8 3 0 -8
-116 52 -163 84 -15 11 -27 17 -27 13 0 -3 -6 -1 -13 5 -29 24 -57 46 -78 60
-12 8 -31 23 -41 33 -10 9 -20 17 -23 17 -7 0 -144 140 -195 200 -73 86 -159
202 -176 240 -10 19 -20 37 -23 40 -13 11 -41 73 -41 91 0 11 -4 17 -10 14 -5
-3 -10 1 -10 9 0 9 -10 37 -21 63 -12 27 -25 57 -30 68 -4 11 -16 40 -27 65
-10 25 -22 57 -25 71 -4 17 -18 31 -39 40 -40 16 -132 71 -136 82 -2 4 -10 7
-18 7 -8 0 -14 3 -14 8 0 4 -12 12 -26 19 -22 10 -24 9 -20 -5 3 -9 10 -39 17
-67 6 -27 12 -54 13 -60 2 -5 9 -38 16 -72 8 -35 18 -63 23 -63 5 0 7 -6 4
-14 -3 -7 0 -19 6 -25 6 -6 8 -11 4 -11 -4 0 4 -25 18 -55 13 -30 22 -55 20
-55 -2 0 10 -26 26 -57 16 -32 29 -62 29 -66 0 -5 10 -23 22 -40 13 -18 21
-32 18 -32 -2 0 21 -43 52 -95 54 -93 135 -190 158 -190 6 0 8 -4 5 -10 -3 -5
2 -10 11 -10 10 0 15 -3 12 -6 -3 -3 8 -20 26 -37 17 -18 47 -52 66 -76 64
-80 133 -143 212 -194 27 -16 48 -34 48 -39 0 -5 4 -7 8 -4 5 3 18 -2 28 -12
10 -9 31 -23 47 -31 15 -8 27 -18 27 -23 0 -4 5 -8 11 -8 6 0 25 -11 43 -25
18 -14 38 -25 44 -25 7 0 12 -3 12 -7 0 -5 29 -21 65 -38 36 -16 65 -32 65
-35 0 -3 8 -6 18 -7 9 -1 31 -7 47 -14 17 -7 39 -14 50 -15 11 -2 31 -7 45
-10 14 -4 34 -8 45 -10 11 -1 34 -6 50 -9 17 -4 35 -8 40 -9 6 -1 16 -5 23 -9
6 -5 12 -5 12 -1 0 3 6 2 13 -3 10 -9 53 -23 67 -22 3 0 19 -5 35 -11 17 -6
56 -13 87 -16 57 -4 128 -12 183 -20 59 -9 255 -3 285 9 8 3 31 8 50 10 64 8
311 85 363 113 15 8 27 12 27 9 0 -4 15 3 33 14 19 11 36 18 39 16 3 -3 11 1
18 10 7 8 18 15 24 15 14 0 128 58 184 94 23 14 44 26 47 26 4 0 26 15 49 32
24 18 54 40 66 48 35 23 72 52 110 85 46 40 202 195 196 195 -2 0 8 13 22 29
43 45 72 82 72 91 0 4 7 13 16 20 16 14 101 155 93 156 -2 0 4 8 14 18 9 10
17 24 17 32 0 8 5 14 10 14 6 0 10 5 10 11 0 15 32 83 43 90 5 3 8 9 7 13 -2
7 36 110 51 138 5 10 9 25 9 33 0 8 4 15 9 15 5 0 8 8 7 17 -2 9 5 42 15 72
16 53 22 81 34 169 3 20 8 51 11 67 3 17 6 58 7 93 1 34 6 62 12 62 7 0 7 3 0
8 -5 4 -11 45 -11 92 -2 126 -8 210 -15 210 -3 0 -5 11 -4 25 2 14 -1 27 -6
31 -5 3 -7 9 -5 13 3 4 -6 57 -20 117 -14 60 -26 116 -26 124 -1 8 -4 17 -7
20 -3 3 -17 39 -31 80 -13 41 -35 93 -47 115 -13 22 -26 48 -30 58 -3 9 -9 17
-14 17 -5 0 -9 7 -9 15 0 9 -9 25 -20 37 -11 12 -20 28 -20 35 0 7 -4 13 -9
13 -5 0 -14 14 -21 30 -7 17 -16 30 -21 30 -5 0 -9 7 -9 15 0 8 -5 15 -12 15
-6 0 -9 3 -6 6 4 3 -1 13 -9 22 -8 9 -38 51 -67 92 -29 41 -72 89 -96 107 -25
17 -55 41 -68 52 -12 12 -24 21 -26 21 -1 0 -32 28 -68 63 -133 127 -180 162
-297 219 -47 22 -90 45 -95 50 -6 4 -22 17 -35 28 -13 11 -30 20 -38 20 -7 0
-13 4 -13 9 0 5 -16 12 -35 15 -19 4 -35 11 -35 16 0 6 -3 9 -7 9 -5 -1 -10 0
-13 1 -3 1 -12 3 -20 5 -25 6 -52 13 -130 35 -41 12 -91 23 -110 26 -19 3 -46
7 -60 9 -14 3 -41 8 -60 11 -19 2 -48 8 -65 11 -16 3 -39 7 -50 9 -11 1 -33 7
-50 12 -50 15 -234 12 -251 -5z m-824 -378 c0 -2 -10 -9 -22 -15 -22 -11 -22
-10 -4 4 21 17 26 19 26 11z m-50 -29 c0 -2 -8 -10 -17 -17 -16 -13 -17 -12
-4 4 13 16 21 21 21 13z m-106 -79 c-2 -7 -14 -19 -27 -26 -21 -13 -21 -12 2
13 27 29 33 32 25 13z m-277 -594 c-4 -3 -3 -11 2 -17 6 -6 12 -25 15 -41 2
-17 5 -30 6 -30 1 0 3 -10 6 -23 6 -32 -15 -36 -69 -13 -51 22 -61 47 -27 69
11 7 20 19 20 27 0 8 7 15 16 15 8 0 12 5 9 10 -3 6 2 10 11 10 10 0 14 -3 11
-7z m-271 -389 c-6 -32 -12 -39 -21 -25 -3 6 -1 11 4 11 6 0 10 3 10 8 -2 14
1 32 6 32 3 0 3 -12 1 -26z m-19 -66 c-3 -8 -6 -5 -6 6 -1 11 2 17 5 13 3 -3
4 -12 1 -19z m-12 -99 c-3 -12 -7 -24 -10 -27 -3 -3 -3 5 -1 19 6 30 5 29 10
29 3 0 3 -10 1 -21z"/>
</g>
</svg>
