<svg width="22" height="22" viewBox="0 0 22 22" fill="none" xmlns="http://www.w3.org/2000/svg">
<path d="M11 0C4.92339 0 0 4.92339 0 11C0 17.0766 4.92339 22 11 22C17.0766 22 22 17.0766 22 11C22 4.92339 17.0766 0 11 0ZM13.5327 15.5286L9.62056 12.6855C9.48306 12.5835 9.40323 12.4238 9.40323 12.2552V4.79032C9.40323 4.49758 9.64274 4.25806 9.93548 4.25806H12.0645C12.3573 4.25806 12.5968 4.49758 12.5968 4.79032V10.898L15.4133 12.9472C15.6528 13.1202 15.7016 13.4528 15.5286 13.6923L14.2778 15.4133C14.1048 15.6484 13.7722 15.7016 13.5327 15.5286Z" fill="#8D8D8D"/>
</svg>
