<svg width="18" height="28" viewBox="0 0 18 28" fill="none" xmlns="http://www.w3.org/2000/svg">
<path d="M10.3604 5.2093C11.7989 5.2093 12.9758 4.03721 12.9758 2.60465C12.9758 1.17209 11.7989 0 10.3604 0C8.92196 0 7.74504 1.17209 7.74504 2.60465C7.74504 4.03721 8.92196 5.2093 10.3604 5.2093ZM5.52197 9.63721L1.86043 28H4.60658L6.96043 17.5814L9.70658 20.186V28H12.322V18.2326L9.57581 15.6279L10.3604 11.7209C12.0604 13.6744 14.6758 14.9767 17.5527 14.9767V12.3721C15.0681 12.3721 12.9758 11.0698 11.9297 9.24651L10.622 7.16279C10.0989 6.3814 9.31427 5.86047 8.39889 5.86047C8.00658 5.86047 7.74504 5.9907 7.35273 5.9907L0.552734 8.85581V14.9767H3.16812V10.5488L5.52197 9.63721Z" fill="#38A169"/>
</svg>
