<?xml version="1.0" standalone="no"?>
<!DOCTYPE svg PUBLIC "-//W3C//DTD SVG 1.1//EN" "http://www.w3.org/Graphics/SVG/1.1/DTD/svg11.dtd" >
<svg xmlns="http://www.w3.org/2000/svg">
<metadata>Generated by IcoMoon</metadata>
<defs>
<font id="icomoon" horiz-adv-x="1024">
<font-face units-per-em="1024" ascent="960" descent="-64" />
<missing-glyph horiz-adv-x="1024" />
<glyph unicode="&#x20;" d="" />
<glyph unicode="&#xf002;" glyph-name="search" horiz-adv-x="1022" d="M1010 74.6c18.6-18.799 18.6-49.199-0.199-68l-56.602-56.6c-18.6-18.801-49-18.801-67.799 0l-199.4 199.4c-9 9-14 21.199-14 34v32.6c-70.6-55.199-159.4-88-256-88-229.8 0-416 186.199-416 416s186.199 416 416 416 416-186.199 416-416c0-96.6-32.801-185.4-88-256h32.6c12.801 0 25-5 34-14zM416 288c141.6 0 256 114.6 256 256 0 141.6-114.6 256-256 256-141.6 0-256-114.6-256-256 0-141.6 114.6-256 256-256z" />
<glyph unicode="&#xf00d;" glyph-name="times" horiz-adv-x="704" d="M485.44 448l200.14-200.14c24.561-24.58 24.561-64.398 0-88.959l-44.48-44.48c-24.561-24.561-64.4-24.561-88.959 0l-200.14 200.14-200.14-200.14c-24.559-24.561-64.398-24.561-88.959 0l-44.48 44.48c-24.561 24.58-24.561 64.4 0 88.959l200.14 200.14-200.14 200.14c-24.561 24.58-24.561 64.398 0 88.959l44.48 44.48c24.58 24.561 64.4 24.561 88.959 0l200.14-200.14 200.14 200.14c24.58 24.561 64.398 24.561 88.959 0l44.48-44.48c24.561-24.58 24.561-64.4 0-88.959z" />
<glyph unicode="&#xf015;" glyph-name="home" horiz-adv-x="1152" d="M560.74 663.48c3.697 2.98 10.551 5.398 15.299 5.398 4.75 0 11.604-2.418 15.301-5.398l368.66-303.48v-328c0-17.664-14.336-32-32-32l-224.042 0.619c-17.664 0-32 14.336-32 32 0 0.029 0 0.074 0.002 0.102v191.279c0 17.664-14.338 32-32 32h-128c-17.664 0-32-14.336-32-32v-191.42c0-17.576-14.266-31.912-31.842-32l-224.12-0.58c-17.664 0-32 14.336-32 32v327.78zM1143.2 457.060c4.891-3.977 8.859-12.318 8.859-18.621 0-4.746-2.445-11.572-5.459-15.24l-51-62c-3.973-4.807-12.262-8.709-18.498-8.709-4.771 0-11.627 2.469-15.301 5.51l-470.46 387.48c-3.697 2.98-10.551 5.398-15.301 5.398-4.748 0-11.602-2.418-15.299-5.398l-470.44-387.48c-3.674-3.033-10.521-5.496-15.285-5.496-6.256 0-14.561 3.924-18.535 8.756l-51 62c-3.041 3.676-5.51 10.531-5.51 15.301 0 6.238 3.902 14.525 8.709 18.5l506.26 416.94c14.672 12.072 42 21.871 61 21.871 19.002 0 46.328-9.799 61-21.871l179.061-147.32v145.221c0 13.248 10.752 24 24 24h112c13.248 0 24-10.752 24-24v-277.020z" />
<glyph unicode="&#xf017;" glyph-name="clock" d="M512 944c274 0 496-222 496-496s-222-496-496-496-496 222-496 496 222 496 496 496zM512 48c221 0 400 179 400 400s-179 400-400 400-400-179-400-400 179-400 400-400zM635.6 256.801l-169.799 123.398c-6.201 4.602-9.801 11.801-9.801 19.4v328.4c0 13.199 10.801 24 24 24h64c13.199 0 24-10.801 24-24v-283.4l133.6-97.199c10.801-7.801 13-22.801 5.201-33.6l-37.602-51.801c-7.799-10.6-22.799-13-33.6-5.199z" />
<glyph unicode="&#xf024;" glyph-name="flag" horiz-adv-x="1040" d="M699.13 762.434c80.99 0 165.223 31.812 233.898 63.709 42.434 19.707 90.971-11.246 90.971-58.033v-486.2c0-21.053-10.32-40.814-27.686-52.717-71.676-49.127-148.672-81.715-245.010-81.715-134.746 0-223.258 69.566-330.436 69.566-101.705 0-172.248-20.117-228.87-44.244v-188.801c0-26.51-21.49-48-48-48h-32c-26.51 0-48 21.49-48 48v772.11c-29.006 20.24-48 53.838-48 91.891 0 63.408 52.689 114.508 116.676 111.904 56.936-2.316 103.559-47.934 107.102-104.807 0.125-1.961 0.227-5.146 0.227-7.111 0-11.422-3.314-29.348-7.398-40.012 41.473 15.258 86.18 24.025 136.090 24.025 134.746 0 223.26-69.566 330.436-69.566z" />
<glyph unicode="&#xf054;" glyph-name="chevron-right" horiz-adv-x="638" d="M570.952 414.058l-388.688-388.688c-18.746-18.744-49.137-18.744-67.881 0l-45.334 45.334c-18.715 18.715-18.75 49.045-0.080 67.803l308.042 309.492-308.042 309.49c-18.67 18.758-18.635 49.088 0.080 67.803l45.334 45.334c18.746 18.744 49.137 18.744 67.881 0l388.686-388.688c18.746-18.744 18.746-49.135 0.002-67.881z" />
<glyph unicode="&#xf062;" glyph-name="arrow-up" horiz-adv-x="894" d="M69.801 381l-44.4 44.4c-18.801 18.799-18.801 49.199 0 67.799l388.6 388.8c18.801 18.801 49.199 18.801 67.801 0l388.6-388.6c18.799-18.801 18.799-49.201 0-67.801l-44.4-44.4c-19-19-50-18.6-68.6 0.801l-229.4 240.8v-574.8c0-26.6-21.4-48-48-48h-64c-26.6 0-48 21.4-48 48v574.8l-229.6-241c-18.6-19.602-49.6-20-68.6-0.801z" />
<glyph unicode="&#xf072;" glyph-name="plane" horiz-adv-x="1152" d="M960 576c70.699 0 192-57.301 192-128s-121.301-128-192-128h-228.58l-210.22-367.88c-5.699-9.959-16.299-16.119-27.779-16.119h-131c-21.26 0-36.6 20.359-30.76 40.801l98.061 343.2h-205.72l-86.4-115.199c-6.039-8.061-15.52-12.801-25.6-12.801h-79.98c-20.82 0-36.1 19.561-31.039 39.76l63.020 216.24-63.020 216.24c-5.061 20.199 10.219 39.76 31.039 39.76h79.98c10.061 0 19.561-4.74 25.6-12.801l86.4-115.199h205.72l-98.061 343.22c-5.84 20.439 9.5 40.779 30.76 40.779h131.002c10.252 0 22.705-7.223 27.799-16.119l210.2-367.88h228.58z" />
<glyph unicode="&#xf082;" glyph-name="facebook-square" d="M896 800.004v-704c0-53-43-96-96-96h-170.6v354.4h121.199l17.4 135.199h-138.6v86.4c0 39.199 10.799 65.801 67 65.801h71.6v120.799c-12.4 1.6-54.801 5.4-104.4 5.4-103.199 0-174-63-174-178.801v-99.799h-121.6v-135.201h121.801v-354.2h-393.8c-53 0-96 43-96 96v704c0 53 43 96 96 96h704c53 0 96-43 96-96z" />
<glyph unicode="&#xf099;" glyph-name="twitter" horiz-adv-x="1022" d="M918.74 656.572c0.65-9.096 0.65-18.195 0.65-27.291 0-277.44-211.166-597.116-597.118-597.116-118.904 0-229.36 34.438-322.274 94.211 16.895-1.947 33.137-2.598 50.68-2.598 98.109 0 188.426 33.137 260.548 89.664-92.264 1.951-169.584 62.377-196.225 145.545 12.996-1.949 25.99-3.248 39.637-3.248 18.842 0 37.686 2.6 55.227 7.146-96.162 19.494-168.285 103.959-168.285 205.968v2.598c27.938-15.594 60.428-25.34 94.861-26.637-56.527 37.686-93.561 102.010-93.561 174.781 0 38.984 10.393 74.721 28.588 105.908 103.309-127.35 258.6-210.516 432.728-219.614-3.248 15.594-5.197 31.836-5.197 48.080 0 115.654 93.564 209.868 209.868 209.868 60.428 0 115.004-25.34 153.342-66.273 47.43 9.096 92.91 26.639 133.197 50.68-15.596-48.732-48.732-89.666-92.264-115.654 42.234 4.547 83.168 16.244 120.852 32.486-28.584-41.582-64.322-78.617-105.256-108.506z" />
<glyph unicode="&#xf0c0;" glyph-name="users" horiz-adv-x="1280" d="M192 512c-70.6 0-128 57.4-128 128s57.4 128 128 128 128-57.4 128-128-57.4-128-128-128zM1088 512c-70.6 0-128 57.4-128 128s57.4 128 128 128 128-57.4 128-128-57.4-128-128-128zM1152 448c70.6 0 128-57.4 128-128v-64c0-35.4-28.6-64-64-64h-132c-12.4 94.801-69.6 174.6-150.199 218.8 23.199 23 55 37.199 90.199 37.199h128zM640 448c-123.801 0-224 100.199-224 224s100.199 224 224 224 224-100.199 224-224-100.199-224-224-224zM793.6 384c127.201 0 230.4-103.199 230.4-230.4v-57.6c0-53-43-96-96-96h-576c-53 0-96 43-96 96v57.6c0 127.201 103.199 230.4 230.4 230.4h16.6c41.801-20 87.801-32 137-32s95.4 12 137 32h16.6zM346.2 410.8c-80.6-44.201-137.799-124-150.398-218.8h-131.801c-35.4 0-64 28.6-64 64v64c0 70.6 57.4 128 128 128h128c35.199 0 67-14.199 90.199-37.199z" />
<glyph unicode="&#xf167;" glyph-name="youtube" horiz-adv-x="1152" d="M1099.31 711.838c22.824-85.734 22.824-264.61 22.824-264.61s0-178.877-22.824-264.612c-12.563-47.299-49.574-83-96.568-95.641-85.182-22.973-426.742-22.973-426.742-22.973s-341.56 0-426.742 22.973c-46.994 12.641-84.006 48.342-96.568 95.641-22.824 85.734-22.824 264.612-22.824 264.612s0 178.875 22.824 264.61c12.563 47.301 49.574 84.551 96.568 97.193 85.182 22.973 426.742 22.973 426.742 22.973s341.562 0 426.742-22.973c46.994-12.641 84.006-49.893 96.568-97.193zM464.29 284.822l285.478 162.402-285.478 162.41v-324.812z" />
<glyph unicode="&#xf16d;" glyph-name="instagram" d="M448.2 678.004c127.201 0 229.8-102.6 229.8-229.8s-102.6-229.798-229.8-229.798c-127.199 0-229.798 102.6-229.798 229.798 0 127.201 102.6 229.8 229.798 229.8zM448.2 298.804c82.201 0 149.4 67 149.4 149.398 0 82.4-67 149.4-149.4 149.4-82.398 0-149.398-67-149.398-149.4 0-82.398 67.199-149.398 149.398-149.398zM741 687.404c0-29.801-24-53.6-53.6-53.6-29.801 0-53.6 24-53.6 53.6s24 53.6 53.6 53.6 53.6-24 53.6-53.6zM893.2 633.004c4.201-74 4.201-295.6 0-369.6-3.6-71.801-20-135.4-72.398-187.801-52.4-52.6-116-69-187.801-72.4-74-4.199-295.8-4.199-369.8 0-71.799 3.602-135.199 20-187.799 72.4s-69 116-72.4 187.801c-4.199 74-4.199 295.798 0 369.798 3.6 71.801 19.801 135.4 72.4 187.801s116.199 68.801 187.799 72.199c74 4.201 295.8 4.201 369.8 0 71.801-3.6 135.4-20 187.801-72.398 52.6-52.4 69-116 72.398-187.801zM797.6 184.004c23.4 58.801 18 199 18 264.2s5.4 205.202-18 264.202c-15.799 39.4-46 69.6-85.199 85.199-58.801 23.201-199 18-264.202 18-65.199 0-205.2 5.4-264.2-18-39.4-15.799-69.6-46-85.199-85.199-23.201-58.801-18-199-18-264.202 0-65.199-5.4-205.2 18-264.2 15.799-39.4 46-69.6 85.199-85.199 58.801-23.201 199-18 264.2-18s205.202-5.4 264.202 18c39.4 15.799 69.6 46 85.199 85.199z" />
<glyph unicode="&#xf1b9;" glyph-name="car" d="M999.98 608c15.619 0 27.080-14.68 23.299-29.82l-12-48c-2.66-10.68-12.26-18.18-23.279-18.18h-40.141c26.84-23.461 44.141-57.561 44.141-96v-96c0-32.26-12.32-61.359-32-83.859v-108.141c0-35.34-28.66-64-64-64h-64c-35.34 0-64 28.66-64 64v64h-512v-64c0-35.34-28.66-64-64-64h-64c-35.34 0-64 28.66-64 64v108.141c-19.68 22.52-32 51.619-32 83.859v96c0 38.439 17.301 72.539 44.16 96h-40.141c-11.020 0-20.619 7.5-23.279 18.18l-12 48c-3.801 15.141 7.66 29.82 23.279 29.82h119.721l33.279 83.199c34.221 85.541 115.861 140.801 207.98 140.801h254c92.141 0 173.76-55.26 207.96-140.801l33.279-83.199h119.74zM295.86 643.66l-39.859-99.66h512l-39.859 99.66c-14.58 36.439-49.881 60.34-89.141 60.34h-254c-39.26 0-74.561-23.9-89.141-60.34zM192 320.4c38.4 0 96-6.381 96 31.9 0 38.279-57.6 95.699-96 95.699s-64-25.52-64-63.801c0-38.279 25.6-63.799 64-63.799zM832 320.4c38.4 0 64 25.52 64 63.799 0 38.281-25.6 63.801-64 63.801s-96-57.42-96-95.699c0-38.281 57.6-31.9 96-31.9z" />
<glyph unicode="&#xf1f0;" glyph-name="cc-visa" horiz-adv-x="1152" d="M940.2 497.404c0 0 15.201-74.4 18.602-90h-66.801c6.6 17.799 32 87 32 87-0.4-0.6 6.6 18.199 10.6 29.799zM1152 800.004v-704c0-53-43-96-96-96h-960c-53 0-96 43-96 96v704c0 53 43 96 96 96h960c53 0 96-43 96-96zM305 297.604l126.4 310.4h-85l-78.6-212-8.602 43-28 142.801c-4.6 19.799-18.799 25.398-36.398 26.199h-129.4l-1.4-6.199c31.6-8 59.801-19.602 84.4-34.201l71.6-270h85zM493.8 297.204l50.398 310.8h-80.398l-50.201-310.8h80.201zM773.6 398.804c0.4 35.398-21.199 62.398-67.4 84.6-28.199 14.199-45.398 23.799-45.398 38.4 0.398 13.199 14.6 26.799 46.199 26.799 26.199 0.6 45.4-5.6 59.801-11.799l7.199-3.4 11 67.199c-15.801 6.201-41 13.201-72 13.201-79.4 0-135.199-42.4-135.6-102.801-0.6-44.6 40-69.4 70.4-84.4 31-15.199 41.6-25.199 41.6-38.6-0.4-20.801-25.201-30.4-48.201-30.4-32 0-49.199 5-75.398 16.6l-10.602 5-11.199-69.799c18.801-8.6 53.6-16.201 89.6-16.6 84.4-0.201 139.4 41.6 140 106zM1056 297.204l-64.801 310.8h-62.199c-19.199 0-33.801-5.6-42-25.801l-119.4-285h84.4s13.801 38.4 16.801 46.602h103.199c2.4-11 9.6-46.602 9.6-46.602h74.4z" />
<glyph unicode="&#xf1f1;" glyph-name="cc-mastercard" horiz-adv-x="1152" d="M965.8 139.404c0-13.6-9.201-23.4-22.4-23.4-13.6 0-22.4 10.4-22.4 23.4s8.801 23.4 22.4 23.4c13.199 0 22.4-10.4 22.4-23.4zM344.2 162.805c13 0 21.602-10.4 21.801-23.4 0-13.6-8.801-23.4-21.801-23.4-14.199 0-22.398 10.4-22.398 23.4s8.199 23.4 22.398 23.4zM579.2 163.404c10.4 0 17.4-6 19.201-17.4h-38.201c1.602 10.4 8.201 17.4 19 17.4zM794.8 162.805c13.6 0 22.398-10.4 22.398-23.4 0-13.6-8.799-23.4-22.398-23.4-13.602 0-21.801 10.4-21.801 23.4s8.199 23.4 21.801 23.4zM1006.6 110.603c0-0.6 0.6-1 0.6-2.199 0-0.6-0.6-1-0.6-2.201-0.6-0.6-0.6-1-1-1.6-0.6-0.6-1-1-2.199-1-0.6-0.6-1-0.6-2.201-0.6-0.6 0-1 0-2.199 0.6-0.6 0-1 0.6-1.6 1-0.6 0.6-1 1-1 1.6-0.6 1-0.6 1.602-0.6 2.201 0 1 0 1.6 0.6 2.199 0 1 0.6 1.6 1 2.201 0.6 0.6 1 0.6 1.6 1 1 0.6 1.6 0.6 2.199 0.6 1 0 1.602 0 2.201-0.6 1-0.602 1.6-0.602 2.199-1 0.6-0.4 0.4-1.201 1-2.201zM1002.2 107.805c1 0 1 0.6 1.602 0.6 0.6 0.6 0.6 1 0.6 1.6s0 1-0.6 1.6c-0.602 0-1 0.6-2.201 0.6h-3.199v-7h1.6v2.801h0.6l2.201-2.801h1.6zM1152 798.004v-704c0-53-43-96-96-96h-960c-53 0-96 43-96 96v704c0 53 43 96 96 96h960c53 0 96-43 96-96zM128 518.804c0-153 124.199-277 277-277 54.4 0 107.801 16.398 153 46.199-145.801 118.6-144.801 342.4 0 461-45.199 30-98.6 46.199-153 46.199-152.801 0.201-277-124-277-276.398zM576 301.204c141 110 140.4 324.4 0 435-140.4-110.6-141-325.2 0-435zM291.4 148.603c0 17.4-11.4 28.801-29.4 29.4-9.199 0-19-2.801-25.6-13-4.801 8.199-13 13-24.4 13-7.6 0-15.199-2.801-21.199-10.801v8.801h-16.4v-73.4h16.4c0 37.801-5 60.4 18 60.4 20.398 0 16.398-20.4 16.398-60.4h15.801c0 36.6-5 60.4 18 60.4 20.4 0 16.4-20 16.4-60.4h16.4v46h-0.4zM381.2 176.004h-15.799v-8.801c-5.4 6.602-13 10.801-23.4 10.801-20.6 0-36.4-16.4-36.4-38.6 0-22.4 15.801-38.6 36.4-38.6 10.4 0 18 3.799 23.4 10.799v-9.199h15.799v73.6zM462.2 124.805c0 30-45.799 16.398-45.799 30.398 0 11.4 23.799 9.602 37 2.201l6.6 13c-18.801 12.199-60.4 12-60.4-16.4 0-28.6 45.801-16.6 45.801-30 0-12.6-27-11.6-41.4-1.6l-7-12.6c22.4-15.201 65.199-12 65.199 15zM533 106.203l-4.4 13.602c-7.6-4.201-24.4-8.801-24.4 8.199v33.199h26.201v14.801h-26.201v22.4h-16.398v-22.4h-15.201v-14.6h15.201v-33.4c0-35.199 34.6-28.801 45.199-21.801zM559.6 133.004h55c0 32.4-14.799 45.199-34.799 45.199-21.201 0-36.4-15.799-36.4-38.6 0-41 45.199-47.799 67.6-28.4l-7.6 12c-15.6-12.799-39.201-11.6-43.801 9.801zM677.8 176.004c-9.201 4-23.201 3.6-30.4-8.801v8.801h-16.4v-73.4h16.4v41.4c0 23.199 19 20.199 25.6 16.801zM699 139.404c0 22.799 23.199 30.199 41.4 16.799l7.6 13c-23.199 18.201-65.4 8.201-65.4-30 0-39.6 44.801-47.6 65.4-30l-7.6 13c-18.4-13-41.4-5.199-41.4 17.201zM832.4 176.004h-16.4v-8.801c-16.6 22-59.801 9.602-59.801-27.799 0-38.4 44.801-49.4 59.801-27.801v-9.199h16.4v73.6zM899.8 176.004c-4.801 2.4-22 5.801-30.4-8.801v8.801h-15.801v-73.4h15.801v41.4c0 22 18 20.6 25.6 16.801zM980.4 205.805h-15.801v-38.602c-16.4 21.801-59.799 10.201-59.799-27.799 0-38.801 45-49.201 59.799-27.801v-9.199h15.801v103.4zM995.6 356.004v-9.199h1.6v9.199h3.801v1.6h-9.199v-1.6h3.799zM1008.8 108.404c0 1 0 2.199-0.602 3.199-0.6 0.6-1 1.6-1.6 2.201s-1.6 1-2.199 1.6c-1 0-2.201 0.6-3.201 0.6-0.6 0-1.6-0.6-2.799-0.6-1-0.6-1.6-1-2.201-1.6-1-0.602-1.6-1.602-1.6-2.201-0.6-1-0.6-2.199-0.6-3.199 0-0.6 0-1.6 0.6-2.801 0-0.6 0.6-1.6 1.6-2.199 0.602-0.6 1-1 2.201-1.6 1-0.602 2.199-0.602 2.799-0.602 1 0 2.201 0 3.201 0.602 0.6 0.6 1.6 1 2.199 1.6s1 1.6 1.6 2.199c0.602 1.201 0.602 2.201 0.602 2.801zM1015.2 357.804h-2.799l-3.201-7-3.199 7h-2.801v-10.801h1.602v8.199l3.199-7h2.199l2.801 7v-8.199h2.199v10.801zM1024 518.804c0 152.398-124.199 276.6-277 276.6-54.4 0-107.801-16.4-153-46.201 144.199-118.6 146.4-343 0-461 45.199-30 99-46.199 153-46.199 152.801-0.199 277 123.801 277 276.8z" />
<glyph unicode="&#xf1f3;" glyph-name="cc-amex" horiz-adv-x="1152" d="M650.2 624.404c0.201-16-8.6-31.4-23.398-37.4 19-6.6 22-18.4 22-36.801v-27h-33.201c-0.6 29.602 7.201 50.201-29.6 50.201h-36v-50.201h-32.801v138.602l78.201-0.602c26.6 0 54.799-4 54.799-36.799zM591.4 601.804c11.4 0 22 2.6 22 15.799 0 12.801-11.201 14.801-21.4 14.801h-42v-30.6h41.4zM558 422.804c31.199 0 55.801-10.801 55.801-45.4 0-55.801-60.801-46.6-98.602-46.6l-0.199-46.602h-64.4l-40.799 46-42.602-46h-130.799l0.199 138.602h133l41-45.602 42 45.602h105.4zM350.4 313.404l38 40.4-35.801 40.398h-83.4v-25h72.602v-28.199h-72.602v-27.6h81.201zM482 297.004v111l-50.6-54.801zM557.6 359.004c11.801 0 21 5.6 21 18.4 0 12.199-9.199 16.799-20.4 16.799h-43v-35.199h42.4zM494.4 632.404h-77.801v-25h75.6v-28.201h-75.6v-27.6h77.801v-28.6h-111v138.6h111v-29.199zM1152 449.204v0zM762.8 385.404c-0.201-15.201-8.4-30.6-23.801-36.801 18.4-6.6 22-19 22-36.799l-0.199-27.602h-33.201l0.201 23c0 23.602-7.602 27.602-29.602 27.602h-35.199l-0.199-50.602h-33.201l0.201 138.602h78.799c26 0 54.201-4.602 54.201-37.4zM704.4 363.004c11.199 0 22 2.6 22 16.4 0 12.799-11.201 14.799-21.4 14.799h-42v-31.199h41.4zM358.8 523.004h-33.602v108.4l-48-108.4h-29.199l-48 108.4v-108.4h-67.6l-12.801 30.6h-69l-12.799-30.6h-35.801l59.4 138.6h49l56.199-131.4v131.4h54.201l43.398-94 39.4 94h55.201v-138.6zM62.4 582.404h45.4l-23 55.199zM1017.2 264.604c69.602 0 109.602-4.4 135 12.201v-180.801c0-53-43-96-96-96h-960.2c-53 0-96 43-96 96v407.4h53.199c8.4 20.199 4.4 10.6 12.801 30.6h38.4c8.4-20 4.4-10.4 12.799-30.6h105.801v22.799c4.4-10 2.199-5 10.199-22.799h59c4.801 11 5.201 11.6 10.201 22.799v-22.799h271v50.199c12.799 0 16 0.201 19.6-0.4 0 0-0.4-21.799 0.199-49.6h133v17.801c14.801-11.801 34.801-17.801 59.4-17.801h53.6c8.4 20.201 4.4 10.6 12.801 30.6h38c13-30 0.4-1 13.199-30.6h105.602v43.801c23.6-39.4 15.6-25.801 26.398-43.801h83.201v184h-79.801v-36.799c-24.4 40.398-12.6 20.799-22.4 36.799h-86.6v-41.199c-12.4 29.199-9.199 21.6-17.6 41.199h-64.801c-0.799 0-4.6-0.4-4.6 0.6h-55.199c-25.6 0-46.201-6.398-61.4-18.6v18.6h-79.801v-10.6c-21.6 12.201-41.398 10.201-128.799 10.6-0.201 0-23.201 0.201-23.201 0h-206c-5-12.199-13.6-32.799-25.199-60-5.6 12-22 47.602-27.801 60h-92v-42.199c-14.799 34.801-9.398 22-18 42.199h-79.398c-6.801-15.799-27.4-64-46.201-107.799v219.6c0 53 43 96 96 96h960c53 0 96-43 96-96v-350.8c-75.4 0.4-88 1.801-108.6-10v10c-90.6 0-107 3.4-129.801-10.398v10.398h-156.398v-10.199c-22.801 13-42.801 10.199-151.4 10.199v-11.199c-12.6 7.4-29 11.199-48.6 11.199h-116c-7-7.6-25-27.398-31.4-34.398-25.4 28.199-21 23.199-31 34.398h-166.201v-184.6h164c6.602 7 25.801 27.801 32.201 34.801 25.4-28.6 20.6-23.4 30.799-34.801h97.801c0 29.4 0.199 16.6 0.199 46 23-0.4 48.602 0.4 68.602 12.4 0-27.801-0.201-34.199-0.201-58.4h79.201c0 37 0.199 14.801 0.199 50.6 12.4 0 15.4 0 18.801-0.199 0.199-2.6 0 0 0-50.4 305.6 0 291.798-2.199 313.398 9v-9zM1089.8 393.604c-9.201 0-18.4-1.4-18.4-13 0-24.4 57.6 0.6 78.6-27v-51.6c-9.801-14.199-28.199-17.801-45-17.801h-64l0.199 29.602h64c8.201 0 16.801 2.6 16.801 12.799 0 29.201-85.4-11.199-85.4 54.801 0 28.199 22 41.4 47.6 41.4h65.801v-29.201h-60.199zM975.8 314.004c8.199 0 17.398 2 17.6 12.801 0 29.799-85.4-11.201-85.4 54.799 0 28.201 21.4 41.4 47 41.4h66.4v-29.199h-60.801c-8.6 0-18.4-1.602-18.4-12.801 0-30.199 85.801 13.801 85.801-52.6 0-32.801-22.801-44-52.4-44h-64.4l0.201 29.6h64.4zM891.4 394.204h-77v-25h75.6v-28.199h-75.801v-27.6l77.201-0.6-0.201-28.602h-110.398l0.199 138.602h110.4v-28.602zM778.8 610.404c0.6 0.6 3.398 2 14.6 2 2 0 4-0.201 6.199-0.201l-14.6-33.799c-4.6 0-6.4 0.799-6.801 1-0.398 0.4-2.199 3.799-2.199 15.799 0 10.801 2.199 14.801 2.801 15.201zM819.6 631.404v0zM787.2 661.804h32.201v-30.4c-34.801 0.6-66.201 8.199-66.201-39.4 0-23.6 5.602-39.801 32.201-39.801h14.799l47 109h49.602l55.799-130.799v130.799h50.6l58.201-96.199v96.199h33.799v-138h-47.199l-62.4 103.801v-103.801h-67.4l-13.199 30.602h-68.6l-12.801-30.602h-38.4c-45.6 0-66 23.602-66 68 0 46.602 21 70.602 68 70.602zM871.4 637.604l-23.201-55.199h45.602zM669.2 661.604h33.801v-138.6h-33.801v138.6z" />
<glyph unicode="&#xf1f4;" glyph-name="cc-paypal" horiz-adv-x="1152" d="M372.6 443.604c0-24.4-19.4-43-44-43-18.4 0-32 10.4-32 30 0 24.4 19 44 43.4 44 18.6 0 32.6-11.4 32.6-31zM161 540.604c22.6 0 39.6-3 35-29.799-4-25.4-21-28.4-43-28.4l-16.4-0.6 8.6 53.398c0.4 3.4 3.4 5.4 6.4 5.4h9.4zM729 540.604c17 0 36-1 36.199-22.199 0-30-18-36-44-36l-16-0.6 8.4 53.398c0.4 3.4 2.801 5.4 6.4 5.4h9zM1152 800.004v-704c0-53-43-96-96-96h-960c-53 0-96 43-96 96v704c0 53 43 96 96 96h960c53 0 96-43 96-96zM256.6 529.204c0 42-32.4 56-69.4 56h-80c-5 0-10-4-10.398-9.398l-32.801-204.202c-0.6-4 2.4-8 6.4-8h38c5.4 0 10.4 5.801 11 11.4l9 53.199c2 14.4 26.4 9.4 36 9.4 57.199 0 92.199 34 92.199 91.6zM425 511.604h-38c-7.6 0-8-11-8.4-16.4-11.6 17-28.4 20-47.4 20-49 0-86.398-43-86.398-90.398 0-39 24.398-64.4 63.398-64.4 18 0 40.4 9.799 53 23.799-1-3-2-9.398-2-12.398 0-4.602 2-8 6.4-8h34.4c5.4 0 10 5.799 11 11.398l20.4 128.602c0.6 3.799-2.4 7.799-6.4 7.799zM506 315.804l127.4 185.199c1 1 1 2 1 3.4 0 3.4-3 7-6.4 7h-38.4c-3.4 0-7-2-9-5l-53-78-22 75c-1.6 4.4-6 8-11 8h-37.4c-3.398 0-6.398-3.6-6.398-7 0-2.4 39-113.6 42.398-124.201-5.398-7.6-41-57.199-41-63.199 0-3.6 3-6.4 6.4-6.4h38.4c3.6 0.201 7 2.201 9 5.201zM824.6 529.204c0 42-32.4 56-69.4 56h-79.398c-5.4 0-10.4-4-11-9.398l-32.4-204c-0.4-4 2.6-8 6.4-8h41c4 0 7 3 8 6.398l9 58c2 14.4 26.398 9.4 36 9.4 56.799 0 91.799 34 91.799 91.6zM993 511.604h-38c-7.6 0-8-11-8.6-16.4-11 17-28 20-47.4 20-49 0-86.4-43-86.4-90.398 0-39 24.4-64.4 63.4-64.4 18.6 0 41 9.799 53 23.799-0.6-3-2-9.398-2-12.398 0-4.602 2-8 6.4-8h34.6c5.4 0 10 5.799 11 11.398l20.4 128.602c0.6 3.799-2.4 7.799-6.4 7.799zM1088 578.204c0 4-3 7-6.4 7h-37c-3 0-6-2.398-6.4-5.398l-32.398-208-0.602-1c0-3.602 3-7 7-7h33c5 0 10 5.799 10.4 11.398l32.4 202.4v0.6zM908 474.604c18.6 0 32.6-11.4 32.4-31 0-24.6-19.4-43-43.4-43-18.4 0-32.4 10.6-32.4 30 0 24.6 19 44 43.4 44z" />
<glyph unicode="&#xf201;" glyph-name="chart-line" d="M992 192c17.68 0 32-14.32 32-32v-64c0-17.68-14.32-32-32-32h-928c-35.34 0-64 28.66-64 64v672c0 17.68 14.32 32 32 32h64c17.68 0 32-14.32 32-32v-608h864zM928 768c17.68 0 32-14.32 31.98-32v-236.1c0-42.76-51.701-64.18-81.941-33.939l-64.799 64.799-192-192c-24.98-25-65.5-25-90.5 0l-146.74 146.74-92.119-92.141c-12.5-12.5-32.762-12.5-45.262 0l-45.238 45.24c-12.5 12.5-12.5 32.76 0 45.26l137.379 137.381c24.98 25 65.5 25 90.5 0l146.74-146.74 146.74 146.76-64.801 64.801c-30.24 30.24-8.82 81.939 33.941 81.939h236.12z" />
<glyph unicode="&#xf207;" glyph-name="bus" d="M976 704c26.5 0 48-21.48 48-48v-160c0-26.5-21.5-48-48-48h-16v-332.8c0-25.6-19.199-51.199-51.199-51.199h-12.801v-64c0-35.34-28.66-64-64-64h-64c-35.34 0-64 28.66-64 64v64h-384v-64c0-35.34-28.66-64-64-64h-64c-35.34 0-64 28.66-64 64v64c-35.34 0-64 28.66-64 64v320h-16c-26.5 0-48 21.5-48 48v160c0 26.52 21.5 48 48 48h16v96c0 89.6 198.4 160 448 160s448-70.4 448-160v-96h16zM224 160c35.34 0 64 28.66 64 64s-28.66 64-64 64-64-28.66-64-64 28.66-64 64-64zM256 384h512c35.34 0 64 28.66 64 64v256c0 35.34-28.66 64-64 64h-512c-35.34 0-64-28.66-64-64v-256c0-35.34 28.66-64 64-64zM800 160c35.34 0 64 28.66 64 64s-28.66 64-64 64-64-28.66-64-64 28.66-64 64-64z" />
<glyph unicode="&#xf236;" glyph-name="bed" horiz-adv-x="1280" d="M352 448c-88.221 0-160 71.779-160 160s71.779 160 160 160 160-71.779 160-160-71.779-160-160-160zM1056 704c123.721 0 224-100.279 224-224v-384c0-17.68-14.32-32-32-32h-64c-17.68 0-32 14.32-32 32v96h-1024v-96c0-17.68-14.32-32-32-32h-64c-17.68 0-32 14.32-32 32v704c0 17.68 14.32 32 32 32h64c17.68 0 32-14.32 32-32v-416h448v288c0 17.68 14.32 32 32 32h448z" />
<glyph unicode="&#xf274;" glyph-name="calendar-check" horiz-adv-x="896" d="M800 832c53.020 0 96-42.98 96-96v-704c0-53.020-42.98-96-96-96h-704c-53.020 0-96 42.98-96 96v704c0 53.020 42.98 96 96 96h96v104c0 13.254 10.746 24 24 24h80c13.254 0 24-10.746 24-24v-104h256v104c0 13.254 10.746 24 24 24h80c13.254 0 24-10.746 24-24v-104h96zM788 32c6.623 0 12 5.377 12 12v596h-704v-596c0-6.623 5.377-12 12-12h680zM682.302 433.3l-284.62-282.338c-9.41-9.334-24.605-9.275-33.941 0.135l-150.182 151.398c-9.334 9.41-9.275 24.605 0.135 33.941l45.439 45.072c9.41 9.334 24.605 9.273 33.939-0.139l88.207-88.922 222.144 220.364c9.41 9.334 24.605 9.273 33.941-0.137l45.072-45.436c9.334-9.41 9.273-24.605-0.137-33.939z" />
<glyph unicode="&#xf2e7;" glyph-name="utensils" horiz-adv-x="832" d="M415.8 929.6c1.6-9.4 32.199-189 32.199-257.6 0-104.6-55.6-179.199-137.801-209.2l25.801-476.202c1.4-27.4-20.4-50.6-48-50.6h-128c-27.4 0-49.4 23-48 50.6l25.801 476.202c-82.4 30-137.801 104.799-137.801 209.2 0 68.801 30.6 248.2 32.199 257.6 6.4 40.6 90.602 41.201 95.801-2.199v-282.4c2.6-6.801 30.199-6.4 32 0 2.801 50.6 15.801 278.4 16 283.6 6.6 41.6 89.4 41.6 95.801 0 0.398-5.4 13.199-233 16-283.6 1.799-6.4 29.6-6.801 32 0v282.4c5.199 43.199 89.6 42.799 96 2.199zM654.2 358.2c-313 244.8-35.199 601.8 129.801 601.8 26.6 0 48-21.6 48-48v-928c0-26.6-21.4-48-48-48h-112c-28 0-50.199 24-47.801 52z" />
<glyph unicode="&#xf500;" glyph-name="user-friends" horiz-adv-x="1280" d="M384 448c-123.801 0-224 100.199-224 224s100.199 224 224 224 224-100.199 224-224-100.199-224-224-224zM537.6 384c127.201 0 230.4-103.199 230.4-230.4v-57.6c0-53-43-96-96-96h-576c-53 0-96 43-96 96v57.6c0 127.201 103.199 230.4 230.4 230.4h16.6c41.801-20 87.801-32 137-32s95.4 12 137 32h16.6zM960 448c-106 0-192 86-192 192s86 192 192 192 192-86 192-192-86-192-192-192zM1056 384c123.801 0 224-100.199 224-224 0-53-43-96-96-96h-353.2c0.199 4.199 1.199 8.4 1.199 12.801v76.799c0 77.201-30.6 147-79.4 199.6 33 19 70.6 30.801 111.4 30.801h7.6c27.801-9.6 57.201-16 88.4-16s60.6 6.4 88.4 16h7.6z" />
<glyph unicode="&#xf533;" glyph-name="helicopter" horiz-adv-x="1280" d="M608 192c-17.662 0-40.604 11.469-51.199 25.6l-172.801 230.4-320 128-63.020 216.24c-5.061 20.199 10.219 39.76 31.039 39.76h79.98c10.061 0 19.561-4.74 25.6-12.801l86.4-115.199h416v128h-352c-17.68 0-32 14.32-32 32v64c0 17.68 14.32 32 32 32h832c17.68 0 32-14.32 32-32v-64c0-17.68-14.32-32-32-32h-352v-128c247.42 0 448-200.58 448-448 0-35.34-28.66-64-64-64h-544zM832 568.98v-248.98h249.58c-25.52 125.119-124.48 223.4-249.58 248.98zM1270.74 42.381c13.18-13.221 12.080-35.041-1.961-47.32-66.299-58.1-107.139-59.041-136.898-59.041h-651.88c-17.68 0-32 14.361-32 32.061v64.119c0 17.701 14.32 32.061 32 32.061h651.88c21.6 0 35.1 8.961 49.279 22.5 12.801 12.221 32.779 12.541 45.279 0.020z" />
<glyph unicode="&#xf6ec;" glyph-name="hiking" horiz-adv-x="766" d="M161.9 15.539l69.119 276.442 105.561-105.561-50.48-201.94c-7.299-29.061-33.379-48.461-62.039-48.461-5.16 0-10.381 0.58-15.6 1.9-34.281 8.561-55.121 43.301-46.561 77.619zM191.68 407.78c-4.379-16.84-22.16-27.080-39.74-22.879l-127.119 30.5c-17.561 4.219-28.221 21.279-23.84 38.119l50.539 196.26c21.941 84.201 110.881 135.381 198.641 114.34 17.561-4.219 28.221-21.279 23.84-38.119zM736 640c17.68 0 32-14.32 31.98-32v-640.020c0-17.68-14.32-32-32-32h-32c-17.68 0-32 14.32-32 32v480h-96c-16.961 0-33.24 6.76-45.24 18.76l-44.859 44.859-39.781-159.139c-0.26-1.041-0.939-1.82-1.24-2.82l93.641-93.641c24.18-24.18 37.5-56.32 37.5-90.5v-165.5c0-35.34-28.66-64-64-64s-64 28.66-64 64v165.5l-173.24 173.24c-10.348 10.35-18.748 30.631-18.748 45.268 0 4.346 0.855 11.295 1.908 15.512l53.84 215.442c13.121 52.439 60.020 89.039 114.061 89.039 31.4 0 60.939-12.221 83.119-34.439l93.561-93.561h69.5v32c0 17.68 14.32 32 32 32h32zM480 768c-53.020 0-96 42.98-96 96s42.98 96 96 96 96-42.98 96-96-42.98-96-96-96z" />
<glyph unicode="&#xf743;" glyph-name="cloud-sun-rain" horiz-adv-x="1152" d="M1021 509c74.6-13.6 131-78.6 131-157 0-88.4-71.6-160-160-160h-512c-88.4 0-160 71.6-160 160 0 77.6 55.199 142 128.4 156.801 0 1-0.4 2.199-0.4 3.199 0 106 86 192 192 192 64.199 0 120.6-31.801 155.4-80 20.799 10 44 16 68.6 16 78.4 0 143.199-56.6 157-131zM248.2 440.2c6.201-6.199 13.201-11.199 20.4-16.6-7.799-22.799-12.4-46.799-12.4-71.799 0-5 1-9.602 1.4-14.4l-118.4-39.4c-20.398-6.6-39.799 12.6-33 33l50.201 150.6-142 71c-19.201 9.6-19.201 37 0 46.6l142 71-50.201 150.602c-6.799 20.398 12.4 39.799 32.801 33l150.6-50.201 71 142c9.6 19.201 37 19.201 46.6 0l71-142 150.602 50.201c20.398 6.799 39.799-12.4 33-32.801l-17.801-53.4c-1.4 0-2.6 0.4-4 0.4-51.199 0-98.4-15.6-138.4-41.4-75.199 58.801-184.199 54.4-253.4-14.799-74.799-75-74.799-196.801 0-271.602zM387.8 556.2c-36.4-16.6-67-42.6-89.602-74.398-25.799 23.398-42.199 56.799-42.199 94.199 0 70.6 57.4 128 128 128 24.801 0 48-7.4 67.6-19.801-32.199-35.199-55.199-79-63.799-128zM1049 123.801c15.4-8.801 20.6-28.201 12-43.602l-73.199-128c-6-10.398-16.801-16.199-27.801-16.199-5.4 0-10.801 1.4-15.801 4.199-15.398 8.801-20.799 28.201-12 43.602l73.201 128c8.799 15.6 28.4 20.6 43.6 12zM857 123.801c15.4-8.801 20.6-28.201 12-43.602l-73.199-128c-6-10.398-16.801-16.199-27.801-16.199-5.4 0-10.801 1.4-15.801 4.199-15.398 8.801-20.799 28.201-12 43.602l73.201 128c8.799 15.6 28.4 20.6 43.6 12zM665 123.801c15.4-8.801 20.6-28.201 12-43.602l-73.199-128c-6-10.398-16.801-16.199-27.801-16.199-5.4 0-10.801 1.4-15.801 4.199-15.398 8.801-20.799 28.201-12 43.602l73.201 128c8.799 15.6 28.4 20.6 43.6 12zM473 123.801c15.4-8.801 20.6-28.201 12-43.602l-73.199-128c-6-10.398-16.801-16.199-27.801-16.199-5.4 0-10.801 1.4-15.801 4.199-15.398 8.801-20.799 28.201-12 43.602l73.201 128c8.799 15.6 28.4 20.6 43.6 12z" />
</font>
</defs>
</svg>
